<svg xmlns="http://www.w3.org/2000/svg" xmlns:xlink="http://www.w3.org/1999/xlink" width="500" zoomAndPan="magnify" viewBox="0 0 375 374.999991" height="500" preserveAspectRatio="xMidYMid meet" version="1.0"><path fill="#5e17eb" d="M 75.5 0.640625 C 75.53125 0.992188 75.53125 30.902344 75.496094 67.109375 L 75.4375 132.933594 L 50.171875 132.933594 L 50.171875 131.429688 C 50.171875 130.210938 50.0625 129.96875 49.589844 130.148438 C 49.273438 130.269531 48.035156 130.371094 46.84375 130.371094 L 44.679688 130.371094 L 44.679688 136.230469 L 47.46875 136.230469 C 50.226562 136.230469 50.253906 136.21875 50.085938 135.339844 C 49.730469 133.46875 49.613281 133.488281 62.976562 133.433594 L 75.441406 133.386719 L 75.441406 141.949219 C 75.441406 146.660156 75.398438 150.597656 75.347656 150.703125 C 75.296875 150.808594 70.722656 150.933594 65.1875 150.980469 L 55.113281 151.0625 L 55.019531 162.328125 L 54.921875 173.59375 L 43.664062 173.496094 L 32.410156 173.402344 L 32.296875 171.84375 L 32.183594 170.289062 L 29.648438 170.289062 C 27.277344 170.289062 27.097656 170.34375 26.890625 171.167969 C 26.769531 171.65625 26.726562 173.015625 26.792969 174.191406 L 26.917969 176.332031 L 29.570312 176.4375 L 32.226562 176.546875 L 32.226562 174.316406 L 54.933594 174.316406 L 54.933594 192.785156 L 47.496094 185.382812 C 43.40625 181.308594 39.90625 177.976562 39.714844 177.976562 C 39.527344 177.976562 42.875 181.480469 47.152344 185.765625 L 54.933594 193.546875 L 54.933594 277.953125 L 26.734375 277.953125 L 26.734375 276.671875 C 26.734375 275.917969 26.546875 275.371094 26.277344 275.339844 C 26.023438 275.3125 24.789062 275.25 23.527344 275.195312 L 21.242188 275.101562 L 21.238281 278.265625 L 21.238281 281.433594 L 23.503906 281.355469 C 26.453125 281.253906 26.734375 281.117188 26.734375 279.796875 L 26.734375 278.6875 L 54.933594 278.6875 L 54.933594 314.921875 L 79.011719 314.902344 C 92.253906 314.894531 103.519531 314.898438 104.046875 314.914062 L 105.003906 314.941406 L 104.917969 327.941406 L 85.511719 327.941406 L 85.292969 325.746094 L 82.746094 325.773438 C 81.347656 325.792969 80.113281 325.894531 80.003906 326.003906 C 79.894531 326.113281 79.914062 327.292969 80.050781 328.628906 L 80.300781 331.054688 L 85.28125 331.054688 L 85.394531 329.863281 L 85.511719 328.675781 L 94.300781 328.640625 C 99.132812 328.621094 103.53125 328.679688 104.074219 328.773438 L 105.058594 328.941406 L 104.976562 341.257812 C 104.929688 348.035156 104.996094 355.308594 105.121094 357.421875 C 105.25 359.539062 105.378906 353.988281 105.410156 345.0625 L 105.46875 328.855469 L 106.476562 328.8125 C 107.03125 328.789062 108.308594 328.722656 109.3125 328.667969 C 110.320312 328.613281 112.53125 328.550781 114.226562 328.53125 C 119.5 328.464844 117.152344 328.035156 111.25 327.988281 L 105.652344 327.941406 L 105.550781 321.484375 L 105.453125 315.023438 L 106.285156 314.871094 C 106.742188 314.785156 109.382812 314.726562 112.152344 314.738281 C 114.921875 314.75 117.1875 314.640625 117.1875 314.492188 C 117.1875 314.347656 114.59375 314.183594 111.417969 314.125 L 105.652344 314.027344 L 105.554688 296.355469 L 105.460938 278.6875 L 123.0625 278.6875 L 126.074219 281.5 C 132.648438 287.632812 142.089844 296.824219 142.089844 297.085938 C 142.089844 297.238281 140.566406 297.375 138.703125 297.390625 C 136.46875 297.40625 135.5625 297.523438 136.046875 297.730469 C 136.449219 297.902344 140.242188 298.054688 144.46875 298.070312 C 153.261719 298.101562 154.121094 298.316406 155.519531 300.828125 C 156.316406 302.257812 156.328125 302.480469 156.351562 318.539062 C 156.367188 328.226562 156.230469 335.34375 156.015625 336.148438 C 155.546875 337.890625 154.027344 339.308594 152.074219 339.824219 C 151.007812 340.105469 146.109375 340.195312 136.507812 340.101562 C 120.921875 339.953125 120.519531 339.894531 119.023438 337.472656 C 118.3125 336.320312 118.285156 335.683594 118.285156 319 C 118.285156 299.929688 118.25 300.242188 120.59375 298.8125 C 121.625 298.183594 122.457031 298.097656 127.511719 298.097656 C 130.945312 298.097656 133.347656 297.949219 133.484375 297.730469 C 133.632812 297.492188 131.628906 297.367188 127.738281 297.367188 C 122.234375 297.375 121.652344 297.4375 120.339844 298.191406 C 117.460938 299.84375 117.527344 299.316406 117.636719 319.179688 L 117.738281 336.785156 L 118.617188 338.070312 C 119.101562 338.777344 120.171875 339.664062 120.996094 340.042969 C 122.386719 340.6875 123.578125 340.738281 137.328125 340.746094 L 152.160156 340.757812 L 153.777344 339.84375 C 154.808594 339.261719 155.671875 338.398438 156.160156 337.464844 C 156.886719 336.066406 156.921875 335.445312 156.921875 324.058594 L 156.921875 312.121094 L 173.976562 329.316406 L 191.035156 346.515625 L 194.890625 342.628906 C 197.011719 340.492188 198.894531 338.746094 199.078125 338.746094 C 199.257812 338.746094 207.5625 346.902344 217.527344 356.871094 C 227.496094 366.84375 235.820312 375 236.019531 375 C 236.222656 375 228.105469 366.71875 217.980469 356.59375 L 199.578125 338.1875 L 210.492188 327.296875 L 221.402344 316.40625 L 210.433594 316.40625 C 204.398438 316.40625 199.585938 316.53125 199.738281 316.679688 C 199.886719 316.832031 204.457031 317.039062 209.886719 317.136719 L 219.765625 317.320312 L 209.460938 327.554688 L 199.15625 337.792969 L 182.320312 320.875 C 173.058594 311.566406 165.371094 303.953125 165.238281 303.953125 C 164.941406 303.953125 166.347656 305.402344 184.222656 323.472656 L 198.703125 338.113281 L 196.792969 339.921875 C 195.738281 340.914062 194.054688 342.601562 193.046875 343.667969 L 191.210938 345.605469 L 183.40625 337.832031 C 179.109375 333.558594 171.417969 325.847656 166.3125 320.699219 L 157.023438 311.335938 L 157.082031 306.914062 C 157.128906 303.269531 157.015625 302.214844 156.441406 300.933594 C 155.121094 297.980469 153.601562 297.363281 147.660156 297.363281 L 143.449219 297.363281 L 140.296875 294.355469 C 131.285156 285.761719 121.902344 276.78125 119.8125 274.753906 L 117.453125 272.46875 L 119.421875 271.441406 C 122.09375 270.042969 123.648438 267.945312 123.984375 265.285156 L 124.242188 263.222656 L 136.1875 275.164062 C 142.757812 281.734375 148.300781 287.109375 148.5 287.109375 C 148.699219 287.109375 143.257812 281.503906 136.410156 274.65625 L 123.960938 262.203125 L 123.917969 244.105469 C 123.871094 226.191406 123.863281 225.992188 123.074219 224.714844 C 122.636719 224.007812 121.667969 223.046875 120.921875 222.582031 L 119.566406 221.742188 L 101.769531 221.636719 L 83.976562 221.53125 L 69.820312 207.480469 L 55.664062 193.425781 L 55.664062 174.316406 L 74.617188 174.3125 C 86.21875 174.308594 93.78125 174.167969 94.117188 173.949219 C 94.476562 173.71875 87.890625 173.59375 75.164062 173.589844 L 55.664062 173.582031 L 55.664062 151.609375 L 75.4375 151.609375 L 75.480469 157.011719 C 75.503906 159.984375 75.492188 162.785156 75.453125 163.238281 C 75.417969 163.691406 75.5625 164.0625 75.777344 164.0625 C 76.042969 164.0625 76.171875 162.015625 76.171875 157.816406 L 76.171875 151.566406 L 80.382812 151.679688 L 84.597656 151.792969 L 84.59375 142.640625 L 84.59375 133.484375 L 95.125 133.511719 L 105.652344 133.539062 L 105.839844 170.898438 L 87.480469 189.171875 L 87.453125 201.894531 C 87.4375 208.894531 87.527344 214.726562 87.65625 214.855469 C 87.785156 214.984375 87.890625 209.347656 87.890625 202.332031 L 87.890625 189.578125 L 96.679688 180.871094 C 101.515625 176.082031 105.507812 172.195312 105.550781 172.234375 C 105.597656 172.269531 105.726562 181.035156 105.832031 191.710938 L 106.03125 211.121094 L 106.117188 191.191406 L 106.199219 171.261719 L 119.660156 157.769531 C 127.0625 150.351562 133.179688 144.074219 133.257812 143.824219 C 133.335938 143.574219 127.445312 149.304688 120.164062 156.554688 C 112.882812 163.804688 106.761719 169.792969 106.558594 169.863281 C 106.320312 169.941406 106.226562 163.757812 106.289062 151.734375 L 106.382812 133.484375 L 110.230469 133.457031 C 112.34375 133.441406 117.453125 133.363281 121.582031 133.28125 L 129.089844 133.132812 L 117.738281 132.941406 L 106.382812 132.75 L 106.289062 116.546875 C 106.234375 107.632812 106.296875 100.339844 106.425781 100.339844 C 106.550781 100.339844 111.773438 105.449219 118.03125 111.695312 C 124.289062 117.9375 129.578125 123.046875 129.789062 123.046875 C 130.003906 123.046875 124.738281 117.566406 118.097656 110.871094 C 111.453125 104.171875 105.96875 98.714844 105.910156 98.742188 C 105.847656 98.769531 105.765625 106.429688 105.726562 115.769531 L 105.652344 132.75 L 84.589844 132.945312 L 84.683594 101.539062 L 84.777344 70.128906 L 88.804688 70.128906 L 88.988281 82.03125 C 89.140625 91.808594 89.269531 94.070312 89.722656 94.707031 C 90.527344 95.835938 92.332031 97.269531 93.382812 97.609375 C 93.886719 97.769531 103.199219 97.890625 114.074219 97.875 C 136.453125 97.839844 136.023438 97.890625 137.9375 95.128906 L 138.976562 93.628906 L 138.976562 78.675781 C 138.976562 70.449219 138.996094 63.722656 139.023438 63.722656 C 139.210938 63.71875 156.953125 81.789062 157.054688 82.085938 C 157.128906 82.300781 151.691406 87.984375 144.972656 94.722656 C 138.25 101.457031 132.683594 107.042969 132.597656 107.136719 C 132.515625 107.226562 132.585938 107.300781 132.757812 107.300781 C 132.929688 107.300781 138.648438 101.738281 145.464844 94.941406 L 157.855469 82.585938 L 170.207031 94.9375 C 177 101.730469 182.722656 107.410156 182.921875 107.558594 C 183.785156 108.199219 177.839844 102.03125 168.640625 92.742188 C 163.203125 87.25 158.707031 82.550781 158.652344 82.300781 C 158.597656 82.050781 160.617188 79.789062 163.140625 77.277344 C 165.660156 74.761719 167.722656 72.558594 167.722656 72.378906 C 167.722656 72.199219 155.734375 60.023438 141.082031 45.324219 C 96.835938 0.933594 96.25 0.355469 96.875 1.464844 C 97.183594 2.011719 151.328125 56.5 161.589844 66.59375 C 164.5625 69.515625 166.992188 72.089844 166.992188 72.320312 C 166.992188 72.546875 164.910156 74.769531 162.363281 77.261719 L 157.734375 81.792969 L 148.449219 72.40625 L 139.160156 63.023438 L 139.15625 56.871094 C 139.15625 49.941406 138.871094 48.445312 137.210938 46.636719 C 135.664062 44.953125 134.339844 44.695312 127.144531 44.6875 L 121.171875 44.675781 L 117.628906 41.289062 C 115.683594 39.425781 105.542969 29.375 95.101562 18.953125 C 84.65625 8.527344 75.960938 0 75.777344 0 C 75.597656 0 75.472656 0.289062 75.5 0.640625 M 76.171875 66.96875 L 76.171875 132.960938 L 83.875 132.75 L 84.046875 69.398438 L 86.5 69.289062 L 88.957031 69.179688 L 89.066406 58.785156 C 89.1875 46.984375 89.15625 47.101562 92.292969 45.5 C 93.875 44.691406 94.148438 44.675781 106.828125 44.675781 C 113.933594 44.675781 119.75 44.609375 119.75 44.527344 C 119.75 44.421875 78.046875 2.734375 76.335938 1.128906 C 76.246094 1.046875 76.171875 30.671875 76.171875 66.96875 M 271.4375 34.867188 L 271.546875 37.902344 L 272.734375 37.789062 L 273.925781 37.671875 L 273.925781 109.601562 L 270.574219 113.523438 L 265.230469 113.523438 C 262.292969 113.523438 259.980469 113.617188 260.09375 113.730469 C 260.207031 113.84375 262.375 113.925781 264.914062 113.917969 C 269.964844 113.898438 270.507812 114.171875 268.523438 115.726562 C 266.996094 116.925781 244.628906 138.773438 244.628906 139.066406 C 244.628906 139.582031 247.121094 137.222656 264.160156 120.585938 C 270.804688 114.097656 271.109375 113.855469 272.402344 113.964844 L 273.742188 114.074219 L 273.835938 130.28125 C 273.890625 139.191406 273.808594 146.507812 273.65625 146.53125 C 273.5 146.558594 270.820312 146.695312 267.699219 146.832031 L 262.023438 147.085938 L 267.976562 147.152344 L 273.925781 147.214844 L 274.007812 155.363281 L 274.085938 163.511719 L 274.28125 155.457031 L 274.476562 147.398438 L 288.390625 147.398438 L 288.390625 184.320312 L 280.882812 184.285156 C 276.753906 184.261719 272.46875 184.382812 271.363281 184.546875 C 269.992188 184.75 272.417969 184.859375 278.960938 184.890625 L 288.574219 184.9375 L 288.574219 191.527344 L 282.003906 191.527344 C 277.847656 191.527344 275.347656 191.667969 275.199219 191.910156 C 275.039062 192.167969 277.109375 192.273438 281.675781 192.242188 L 288.390625 192.195312 L 288.605469 194.332031 L 288.816406 196.472656 L 288.941406 192.269531 L 301.300781 192.175781 L 313.660156 192.078125 L 313.765625 188.523438 L 313.867188 184.964844 L 328.09375 184.753906 L 328.199219 185.96875 L 328.308594 187.183594 L 330.671875 187.332031 C 331.972656 187.414062 333.125 187.339844 333.234375 187.164062 C 333.34375 186.988281 333.378906 185.589844 333.316406 184.058594 L 333.195312 181.273438 L 331.804688 181.273438 C 331.039062 181.273438 329.898438 181.378906 329.269531 181.503906 C 328.265625 181.703125 328.125 181.882812 328.125 182.929688 C 328.125 184.097656 328.078125 184.132812 326.386719 184.273438 C 325.039062 184.386719 315.535156 184.351562 314.117188 184.226562 C 313.964844 184.214844 313.84375 175.902344 313.84375 165.757812 L 313.84375 147.308594 L 316.132812 147.308594 C 327.425781 147.304688 334.066406 147.175781 333.851562 146.964844 C 333.714844 146.824219 329.195312 146.695312 323.8125 146.675781 L 314.027344 146.644531 L 313.929688 130.082031 L 313.835938 113.523438 L 289.304688 113.523438 L 289.304688 104.371094 C 289.304688 99.335938 289.179688 95.214844 289.027344 95.214844 C 288.875 95.214844 285.632812 98.335938 281.820312 102.152344 C 278.007812 105.96875 274.78125 109.023438 274.648438 108.941406 C 274.515625 108.859375 274.390625 92.808594 274.363281 73.269531 L 274.320312 37.742188 L 275.601562 37.792969 C 276.304688 37.816406 277.050781 37.671875 277.253906 37.46875 C 277.457031 37.265625 277.574219 35.960938 277.515625 34.570312 L 277.40625 32.042969 L 274.367188 31.9375 L 271.332031 31.832031 Z M 272.09375 34.789062 L 272.09375 36.988281 L 273.332031 36.988281 C 274.011719 36.988281 275.082031 37.089844 275.710938 37.214844 L 276.855469 37.445312 L 276.855469 32.59375 L 272.09375 32.59375 Z M 92.375 46.140625 C 91.714844 46.539062 90.851562 47.40625 90.453125 48.0625 C 89.746094 49.21875 89.722656 49.949219 89.722656 71.5 L 89.722656 93.746094 L 90.988281 95.148438 C 91.6875 95.921875 92.878906 96.753906 93.644531 97.003906 C 94.691406 97.34375 99.835938 97.425781 114.625 97.34375 C 133.621094 97.230469 134.253906 97.207031 135.496094 96.476562 C 136.199219 96.0625 137.152344 95.167969 137.609375 94.488281 L 138.445312 93.25 L 138.34375 71.1875 C 138.246094 49.453125 138.234375 49.109375 137.476562 48.09375 C 137.058594 47.523438 136.167969 46.6875 135.5 46.234375 L 134.289062 45.410156 L 113.929688 45.410156 C 94.257812 45.414062 93.527344 45.4375 92.375 46.140625 M 223.25 47.246094 C 222.667969 47.425781 221.78125 47.949219 221.277344 48.414062 C 219.515625 50.035156 219.359375 50.984375 219.359375 60.046875 L 219.359375 68.480469 L 199.21875 68.480469 L 199.308594 92.925781 L 199.394531 117.371094 L 199.492188 93.285156 L 199.589844 69.203125 L 209.480469 69.300781 L 219.375 69.398438 L 219.457031 80.632812 C 219.539062 91.335938 219.578125 91.914062 220.296875 92.878906 C 220.714844 93.433594 221.507812 94.226562 222.0625 94.644531 C 223.015625 95.355469 223.640625 95.402344 232.753906 95.507812 L 242.429688 95.613281 L 242.414062 143.371094 L 240.5 141.347656 C 237.550781 138.226562 236.84375 137.929688 239.449219 140.898438 C 240.726562 142.359375 241.921875 143.554688 242.101562 143.554688 C 242.292969 143.554688 242.453125 154.230469 242.480469 168.914062 C 242.507812 182.976562 242.660156 193.460938 242.820312 192.445312 C 242.980469 191.4375 243.117188 180.394531 243.125 167.90625 C 243.132812 155.417969 243.144531 145.039062 243.152344 144.835938 C 243.15625 144.636719 250.292969 151.5625 259.003906 160.226562 C 267.714844 168.894531 275.5 176.550781 276.304688 177.246094 C 277.113281 177.941406 269.984375 170.683594 260.46875 161.121094 L 243.164062 143.734375 L 243.164062 95.613281 L 253.875 95.503906 C 264.421875 95.398438 264.605469 95.382812 265.78125 94.546875 C 268.34375 92.71875 268.25 93.605469 268.25 71.226562 C 268.25 48.851562 268.34375 49.738281 265.78125 47.910156 L 264.585938 47.058594 L 244.445312 46.992188 C 233.367188 46.957031 223.828125 47.070312 223.25 47.246094 M 223.535156 47.859375 C 223.109375 47.941406 222.203125 48.585938 221.519531 49.292969 L 220.277344 50.578125 L 220.167969 59.527344 L 220.054688 68.480469 L 224.285156 68.480469 C 226.613281 68.480469 228.640625 68.523438 228.789062 68.574219 C 228.941406 68.625 229.152344 67.703125 229.253906 66.523438 C 229.496094 63.8125 230.0625 63.355469 233.164062 63.355469 C 237.050781 63.355469 236.9375 63.027344 236.9375 74.511719 C 236.9375 85.722656 237.222656 84.960938 233.003906 84.960938 C 228.972656 84.960938 229.070312 85.15625 229.035156 77.023438 C 229.015625 73.230469 228.976562 69.921875 228.941406 69.671875 C 228.898438 69.335938 227.726562 69.214844 224.488281 69.214844 L 220.09375 69.214844 L 220.09375 80.109375 C 220.09375 95.695312 219.339844 94.847656 233.179688 94.847656 L 242.429688 94.847656 L 242.429688 89.949219 C 242.429688 85.273438 242.394531 85.023438 241.609375 84.503906 C 240.789062 83.960938 240.785156 83.902344 240.675781 72.929688 C 240.605469 65.550781 240.699219 61.65625 240.964844 61.160156 C 241.3125 60.515625 241.726562 60.425781 244.414062 60.425781 C 246.785156 60.425781 247.578125 60.558594 247.960938 61.019531 C 248.34375 61.480469 248.488281 64.054688 248.597656 72.375 C 248.722656 81.984375 248.671875 83.234375 248.125 84.070312 C 247.691406 84.734375 247.21875 84.992188 246.527344 84.945312 C 245.988281 84.910156 245.007812 84.902344 244.355469 84.921875 L 243.164062 84.960938 L 243.164062 94.878906 L 253.996094 94.773438 L 264.828125 94.664062 L 266.082031 93.296875 C 267.226562 92.046875 267.335938 91.730469 267.34375 89.636719 C 267.347656 88.375 267.347656 79.101562 267.339844 69.03125 C 267.324219 48.597656 267.453125 49.628906 264.746094 48.25 C 263.589844 47.660156 261.886719 47.613281 243.894531 47.65625 C 233.121094 47.683594 223.957031 47.777344 223.535156 47.859375 M 107.117188 51.5 C 104.894531 51.84375 101.949219 52.816406 100.398438 53.714844 C 97.769531 55.238281 97.777344 55.195312 97.785156 71.308594 C 97.796875 87.632812 97.816406 87.757812 100.773438 89.488281 C 103.730469 91.222656 106.453125 91.679688 113.890625 91.6875 C 121.425781 91.699219 124.101562 91.316406 127.035156 89.816406 C 130.472656 88.058594 130.371094 88.605469 130.367188 71.417969 C 130.363281 60.246094 130.246094 56.355469 129.898438 55.664062 C 129.335938 54.539062 126.472656 52.957031 123.574219 52.167969 C 121.421875 51.585938 109.65625 51.105469 107.117188 51.5 M 110.960938 52.261719 C 107.957031 52.507812 103.488281 53.472656 101.976562 54.207031 C 97.257812 56.488281 98.089844 58.59375 104.519531 60.640625 C 110.460938 62.535156 121.261719 62.164062 126.207031 59.902344 C 129.472656 58.40625 130.054688 57.121094 128.1875 55.546875 C 125.726562 53.476562 116.847656 51.785156 110.960938 52.261719 M 252.332031 55.273438 C 252.089844 55.726562 251.953125 61.003906 251.953125 69.894531 C 251.953125 82.058594 252.027344 83.882812 252.527344 84.386719 C 252.949219 84.804688 253.839844 84.960938 255.824219 84.960938 C 260.300781 84.960938 260.011719 86.019531 260.011719 69.738281 C 260.011719 60.957031 259.871094 55.726562 259.628906 55.273438 C 259.300781 54.65625 258.839844 54.566406 255.980469 54.566406 C 253.125 54.566406 252.664062 54.65625 252.332031 55.273438 M 254.609375 56.65625 C 254.253906 56.785156 254.152344 59.636719 254.152344 69.214844 C 254.152344 76.03125 254.25 81.867188 254.371094 82.183594 C 254.527344 82.589844 255.074219 82.765625 256.203125 82.765625 L 257.8125 82.765625 L 257.8125 69.761719 C 257.8125 59.621094 257.710938 56.757812 257.355469 56.738281 C 257.101562 56.722656 256.484375 56.664062 255.980469 56.601562 C 255.476562 56.539062 254.859375 56.566406 254.609375 56.65625 M 98.75 63.445312 C 98.992188 68.144531 99.117188 68.386719 102.003906 69.753906 C 109.199219 73.15625 126.738281 71.980469 128.894531 67.953125 C 129.1875 67.40625 129.375 65.851562 129.367188 64.011719 C 129.347656 59.1875 129.507812 59.527344 127.714844 60.550781 C 124.789062 62.21875 121.304688 62.804688 114.441406 62.777344 C 110.082031 62.761719 107.445312 62.578125 105.644531 62.160156 C 102.796875 61.503906 99.824219 60.335938 99.445312 59.722656 C 98.757812 58.609375 98.558594 59.675781 98.75 63.445312 M 242.882812 72.601562 L 242.980469 82.582031 L 244.539062 82.691406 C 245.613281 82.769531 246.109375 82.65625 246.144531 82.328125 C 246.296875 80.847656 246.363281 63.800781 246.21875 63.261719 C 246.085938 62.773438 245.65625 62.621094 244.414062 62.621094 L 242.785156 62.621094 Z M 102.015625 65.394531 C 101.160156 66.253906 101.304688 67.015625 102.324219 67.015625 C 102.8125 67.015625 103.449219 67.109375 103.742188 67.21875 C 104.550781 67.53125 104.777344 66.070312 104.027344 65.390625 C 103.230469 64.667969 102.742188 64.667969 102.015625 65.394531 M 125.027344 65.761719 C 124.40625 66.023438 122.828125 66.453125 121.519531 66.71875 C 118.90625 67.246094 118.335938 67.992188 120.667969 67.832031 C 122.800781 67.683594 124.941406 67.066406 125.9375 66.3125 C 127.050781 65.476562 126.503906 65.144531 125.027344 65.761719 M 231.445312 74.15625 L 231.445312 82.761719 L 234.742188 82.761719 L 234.820312 76.628906 C 234.863281 73.253906 234.921875 69.675781 234.949219 68.671875 C 235.023438 65.777344 234.882812 65.550781 233.050781 65.550781 L 231.445312 65.550781 Z M 98.675781 70.859375 C 98.539062 71.769531 98.539062 73.585938 98.679688 74.890625 C 98.898438 76.925781 99.082031 77.367188 99.960938 77.992188 C 103.132812 80.25 107.515625 81.113281 115.722656 81.097656 C 122.121094 81.082031 123.625 80.828125 126.964844 79.199219 C 128.269531 78.5625 128.980469 77.953125 129.21875 77.273438 C 129.539062 76.34375 129.5 70.417969 129.167969 70.085938 C 129.085938 70.003906 128.085938 70.363281 126.945312 70.886719 C 120.332031 73.914062 104.804688 73.386719 100.007812 69.96875 L 98.925781 69.199219 Z M 63.863281 73.398438 C 63.53125 74.265625 64 75.144531 64.726562 75.003906 C 65.597656 74.835938 65.597656 73.113281 64.726562 72.945312 C 64.375 72.878906 63.984375 73.082031 63.863281 73.398438 M 101.980469 75.082031 C 101.070312 76.085938 101.941406 76.773438 103.875 76.582031 C 104.574219 76.507812 104.738281 75.496094 104.144531 74.902344 C 103.390625 74.144531 102.785156 74.195312 101.980469 75.082031 M 123.046875 76.011719 C 122.34375 76.277344 121.269531 76.515625 120.667969 76.542969 C 119.109375 76.609375 118.03125 77.070312 118.601562 77.421875 C 119.585938 78.027344 125.609375 76.605469 125.609375 75.765625 C 125.609375 75.328125 124.601562 75.421875 123.046875 76.011719 M 98.804688 81.574219 C 98.621094 85.042969 99.050781 86.953125 100.238281 87.886719 C 103.085938 90.128906 110.265625 91.183594 118.320312 90.542969 C 125.328125 89.984375 128.171875 88.789062 129.246094 85.945312 C 129.644531 84.894531 129.804688 79.46875 129.4375 79.46875 C 129.328125 79.46875 128.707031 79.742188 128.0625 80.078125 C 125.457031 81.429688 122.480469 82.066406 117.738281 82.277344 C 110.5 82.601562 103.117188 81.390625 100.285156 79.414062 C 99.75 79.039062 99.234375 78.734375 99.136719 78.734375 C 99.035156 78.734375 98.890625 80.011719 98.804688 81.574219 M 102.265625 84.105469 C 101.683594 84.339844 101.671875 85.414062 102.246094 85.988281 C 102.953125 86.695312 104.292969 86.515625 104.558594 85.675781 C 104.972656 84.371094 103.722656 83.515625 102.265625 84.105469 M 124.714844 84.929688 C 124.597656 85.121094 123.554688 85.480469 122.398438 85.726562 C 121.246094 85.976562 119.886719 86.390625 119.386719 86.652344 C 118.492188 87.117188 118.503906 87.128906 119.933594 87.140625 C 120.738281 87.148438 122.003906 86.984375 122.742188 86.78125 C 124.382812 86.324219 125.898438 85.183594 125.328125 84.832031 C 125.109375 84.695312 124.832031 84.738281 124.714844 84.929688 M 279.890625 104.828125 C 275.402344 109.308594 271.730469 113.097656 271.730469 113.25 C 271.730469 113.402344 272.222656 113.523438 272.828125 113.523438 C 273.8125 113.523438 273.929688 113.402344 273.96875 112.335938 L 274.011719 111.144531 L 274.246094 112.242188 L 274.480469 113.34375 L 281.527344 113.441406 L 288.574219 113.542969 L 288.574219 105.109375 C 288.574219 100.472656 288.457031 96.679688 288.3125 96.679688 C 288.171875 96.679688 284.378906 100.347656 279.890625 104.828125 M 63.722656 100.160156 C 63.722656 100.820312 63.917969 101.074219 64.429688 101.074219 C 65.292969 101.074219 65.628906 100.605469 65.332031 99.824219 C 64.957031 98.847656 63.722656 99.105469 63.722656 100.160156 M 155.710938 103.710938 C 155.472656 103.953125 155.273438 104.347656 155.273438 104.585938 C 155.273438 105.300781 156.457031 105.542969 157.046875 104.953125 C 157.492188 104.503906 157.507812 104.304688 157.121094 103.839844 C 156.554688 103.15625 156.292969 103.132812 155.710938 103.710938 M 300.902344 103.515625 C 300.769531 103.648438 300.660156 104.0625 300.660156 104.429688 C 300.660156 105.277344 302.054688 105.347656 302.371094 104.515625 C 302.671875 103.734375 301.488281 102.929688 300.902344 103.515625 M 130.371094 111.378906 C 130.371094 112.023438 130.628906 113.964844 130.945312 115.695312 C 133.050781 127.171875 134.085938 132.347656 134.382812 132.90625 C 134.84375 133.761719 156.324219 144.457031 173.582031 152.421875 C 174.894531 153.027344 177.984375 154.503906 180.449219 155.707031 L 184.933594 157.894531 L 189.136719 155.851562 C 191.449219 154.726562 193.414062 153.808594 193.511719 153.808594 C 194.402344 153.808594 233.714844 134.410156 234.789062 133.441406 C 235.117188 133.144531 235.496094 132.0625 235.632812 131.035156 C 235.765625 130.007812 236.375 126.679688 236.980469 123.636719 C 238.371094 116.664062 239.460938 110.445312 239.320312 110.300781 C 239.261719 110.238281 234.953125 113.089844 229.746094 116.644531 C 220.320312 123.070312 220.269531 123.097656 218.628906 122.898438 C 213.46875 122.265625 189.601562 120.0625 186.035156 119.890625 C 181.824219 119.683594 175.527344 120.214844 156.636719 122.367188 L 149.757812 123.148438 L 144.378906 119.527344 C 141.421875 117.535156 137.347656 114.785156 135.328125 113.414062 C 130.109375 109.875 130.371094 109.984375 130.371094 111.378906 M 281.265625 114.175781 C 276.710938 114.246094 274.792969 114.40625 274.59375 114.722656 C 274.4375 114.972656 274.328125 122.21875 274.34375 130.828125 L 274.375 146.484375 L 278.085938 146.507812 C 280.128906 146.523438 282.539062 146.582031 283.445312 146.636719 C 284.355469 146.695312 285.878906 146.660156 286.835938 146.566406 L 288.574219 146.390625 L 288.574219 130.363281 C 288.574219 117.855469 288.472656 114.308594 288.117188 114.207031 C 287.863281 114.132812 284.78125 114.121094 281.265625 114.175781 M 289.304688 130.332031 C 289.304688 142.855469 289.40625 146.445312 289.765625 146.578125 C 290.015625 146.671875 294.753906 146.691406 300.292969 146.621094 C 305.832031 146.554688 310.980469 146.492188 311.738281 146.492188 L 313.109375 146.484375 L 313.109375 114.257812 L 289.304688 114.257812 Z M 134.222656 117.066406 C 134.300781 117.433594 134.625 119.300781 134.941406 121.214844 C 135.925781 127.109375 136.683594 130.535156 137.105469 131 C 137.496094 131.425781 167.277344 146.363281 171.351562 148.175781 C 172.441406 148.660156 173.394531 148.996094 173.46875 148.917969 C 173.546875 148.839844 171.667969 147.078125 169.292969 145 C 166.921875 142.921875 163.984375 140.304688 162.769531 139.183594 C 151.375 128.664062 146.882812 124.957031 138.480469 119.140625 C 134.460938 116.355469 134.035156 116.148438 134.222656 117.066406 M 232.855469 118.035156 C 231.71875 118.878906 229.511719 120.472656 227.957031 121.582031 C 222.457031 125.496094 219.589844 127.847656 212.648438 134.144531 C 208.785156 137.648438 203.898438 142.042969 201.78125 143.910156 C 197.742188 147.480469 195.746094 149.414062 196.09375 149.414062 C 196.59375 149.414062 231.660156 131.777344 232.164062 131.273438 C 232.714844 130.722656 235.585938 116.429688 235.136719 116.480469 C 235.019531 116.492188 233.992188 117.191406 232.855469 118.035156 M 63.722656 121.761719 C 63.28125 122.296875 63.792969 123.777344 64.421875 123.777344 C 64.980469 123.777344 65.566406 122.78125 65.347656 122.207031 C 65.035156 121.398438 64.210938 121.171875 63.722656 121.761719 M 94.167969 122.070312 C 93.867188 122.429688 93.898438 122.738281 94.28125 123.261719 C 94.769531 123.917969 94.84375 123.921875 95.425781 123.351562 C 96.109375 122.675781 95.902344 121.582031 95.089844 121.582031 C 94.804688 121.582031 94.390625 121.800781 94.167969 122.070312 M 182.738281 122.414062 C 182.636719 122.511719 179.671875 122.867188 176.148438 123.207031 C 172.621094 123.542969 167.84375 124.050781 165.527344 124.335938 C 163.210938 124.617188 159.269531 125.042969 156.769531 125.285156 L 152.222656 125.726562 L 153.289062 126.632812 C 154.546875 127.699219 167.625 139.628906 174.476562 145.957031 C 180.492188 151.511719 184.183594 154.542969 184.917969 154.53125 C 185.789062 154.515625 187.671875 152.960938 194.738281 146.429688 C 198.308594 143.125 203.457031 138.414062 206.175781 135.960938 C 214.394531 128.539062 216.988281 126.058594 216.773438 125.835938 C 216.660156 125.71875 209.984375 124.953125 201.941406 124.136719 C 182.882812 122.199219 182.953125 122.207031 182.738281 122.414062 M 180.542969 125.585938 C 179.433594 125.753906 176.714844 126.09375 174.5 126.34375 C 166.632812 127.234375 159.976562 128.109375 159.816406 128.269531 C 159.726562 128.359375 161.261719 129.898438 163.230469 131.683594 C 167.054688 135.15625 170.199219 138.089844 175.773438 143.386719 C 183.863281 151.066406 184.554688 151.644531 185.253906 151.273438 C 185.613281 151.078125 187.710938 149.222656 189.917969 147.144531 C 198.488281 139.082031 204.261719 133.703125 206.542969 131.652344 C 210.417969 128.175781 210.355469 128.261719 209.1875 128.03125 C 207.035156 127.605469 205.300781 127.394531 196.472656 126.5 C 184.859375 125.328125 183.011719 125.21875 180.542969 125.585938 M 324.679688 130.601562 C 324.386719 131.355469 325.085938 132.222656 325.769531 131.957031 C 326.582031 131.648438 326.4375 130.003906 325.601562 130.003906 C 325.21875 130.003906 324.804688 130.273438 324.679688 130.601562 M 45.222656 133.027344 L 45.324219 135.316406 L 47.378906 135.425781 L 49.4375 135.535156 L 49.4375 130.738281 L 45.121094 130.738281 Z M 79.191406 133.574219 L 76.171875 133.695312 L 76.171875 142.511719 C 76.171875 150.394531 76.234375 151.300781 76.75 151.101562 C 77.070312 150.980469 78.839844 150.878906 80.6875 150.878906 L 84.046875 150.878906 L 83.941406 142.378906 C 83.835938 133.949219 83.71875 133.167969 82.582031 133.382812 C 82.378906 133.417969 80.855469 133.503906 79.191406 133.574219 M 255.5 137.566406 C 255.050781 138.015625 255.234375 139.441406 255.773438 139.648438 C 256.542969 139.945312 257.3125 138.875 256.851562 138.144531 C 256.414062 137.453125 255.855469 137.210938 255.5 137.566406 M 302.214844 138.851562 C 301.699219 139.367188 302.265625 140.625 303.011719 140.625 C 303.707031 140.625 304.054688 139.535156 303.550781 138.929688 C 303.042969 138.316406 302.765625 138.300781 302.214844 138.851562 M 120.910156 140.167969 C 120.46875 141.027344 120.765625 141.722656 121.574219 141.722656 C 122.40625 141.722656 122.832031 140.695312 122.277344 140.027344 C 121.714844 139.355469 121.308594 139.394531 120.910156 140.167969 M 139.722656 140.714844 C 139.417969 142.09375 137.796875 151.796875 136.804688 158.167969 L 135.867188 164.175781 L 139.101562 169.886719 C 140.882812 173.027344 142.707031 176.265625 143.15625 177.085938 C 144.117188 178.828125 146.296875 180.371094 153.625 184.492188 C 160.90625 188.589844 169.785156 193.742188 177.355469 198.257812 C 180.9375 200.398438 184.050781 202.148438 184.269531 202.148438 C 184.71875 202.148438 187.367188 200.695312 191.875 197.972656 C 193.574219 196.945312 201.726562 192.234375 209.988281 187.5 C 223.003906 180.046875 225.144531 178.699219 225.988281 177.429688 C 228.660156 173.414062 233.640625 164.164062 233.640625 163.222656 C 233.640625 162.09375 230.03125 140.191406 229.808594 139.964844 C 229.734375 139.890625 226.625 141.363281 222.902344 143.238281 L 216.128906 146.644531 L 217.191406 147.855469 C 220.585938 151.71875 221.242188 157.472656 218.878906 162.597656 C 217.71875 165.121094 214.011719 168.578125 211.433594 169.546875 C 202.722656 172.820312 193.632812 168.050781 191.730469 159.210938 C 191.613281 158.65625 191.390625 158.203125 191.238281 158.203125 C 191.085938 158.203125 189.648438 158.964844 188.039062 159.898438 C 185.175781 161.558594 183.949219 161.902344 183.492188 161.167969 C 183.292969 160.847656 178.101562 157.835938 177.746094 157.835938 C 177.671875 157.835938 177.609375 158.371094 177.609375 159.027344 C 177.597656 162.285156 173.449219 167.574219 169.449219 169.421875 C 167.425781 170.355469 166.773438 170.472656 163.511719 170.472656 C 160.265625 170.472656 159.601562 170.355469 157.652344 169.445312 C 154.039062 167.753906 151.527344 164.867188 150.171875 160.839844 C 149.753906 159.601562 149.414062 157.699219 149.414062 156.605469 C 149.414062 153.902344 150.632812 150.15625 152.171875 148.144531 C 152.871094 147.226562 153.441406 146.417969 153.441406 146.34375 C 153.441406 146.269531 152.90625 145.992188 152.253906 145.726562 C 151.597656 145.460938 148.597656 144.042969 145.585938 142.570312 C 142.578125 141.097656 140.066406 139.890625 140.011719 139.890625 C 139.953125 139.890625 139.824219 140.261719 139.722656 140.714844 M 334.714844 146.484375 L 334.714844 149.414062 L 339.84375 149.414062 L 339.84375 143.554688 L 334.714844 143.554688 Z M 335.34375 144.179688 C 335.25 144.339844 335.210938 144.964844 335.253906 145.570312 C 335.296875 146.171875 335.359375 147.203125 335.390625 147.859375 L 335.449219 149.046875 L 339.566406 149.046875 L 339.40625 146.859375 C 339.320312 145.652344 339.175781 144.605469 339.089844 144.523438 C 338.734375 144.207031 335.503906 143.90625 335.34375 144.179688 M 289.515625 147.542969 C 289.152344 148.132812 288.992188 184.160156 289.351562 184.28125 C 289.527344 184.339844 294.941406 184.339844 301.390625 184.285156 L 313.109375 184.183594 L 313.109375 147.347656 L 301.429688 147.253906 C 293.660156 147.195312 289.671875 147.289062 289.515625 147.542969 M 155.535156 149.140625 C 153.613281 150.957031 152.621094 153.222656 152.425781 156.226562 C 152.277344 158.492188 152.382812 159.117188 153.265625 161.078125 C 155.113281 165.195312 158.722656 167.675781 163.003906 167.761719 C 168.601562 167.871094 173.121094 164.496094 174.550781 159.132812 C 174.820312 158.117188 175.042969 157.15625 175.042969 156.996094 C 175.050781 156.664062 170.703125 154.542969 170.011719 154.542969 C 169.714844 154.539062 169.554688 155.121094 169.554688 156.226562 C 169.554688 159.421875 167.417969 161.96875 164.320312 162.472656 C 162.660156 162.742188 159.992188 161.515625 158.902344 159.984375 C 157.140625 157.511719 157.53125 154.15625 159.867188 151.71875 C 160.761719 150.785156 161.445312 149.972656 161.386719 149.914062 C 161.242188 149.765625 157.121094 147.949219 156.9375 147.949219 C 156.855469 147.949219 156.226562 148.484375 155.535156 149.140625 M 210.089844 148.984375 L 207.960938 149.964844 L 209.117188 151.0625 C 212.480469 154.261719 212.5 159.15625 209.15625 161.390625 C 207.359375 162.59375 205.707031 162.796875 203.773438 162.058594 C 201.425781 161.164062 200.21875 159.429688 200.019531 156.679688 C 199.886719 154.84375 199.765625 154.535156 199.265625 154.742188 C 198.9375 154.875 198.246094 155.109375 197.730469 155.265625 C 196.621094 155.601562 195.101562 156.425781 194.78125 156.867188 C 194.429688 157.347656 195.109375 159.894531 196.121094 161.894531 C 198.058594 165.71875 201.257812 167.667969 205.652344 167.703125 C 209.371094 167.734375 211.425781 166.921875 213.898438 164.453125 C 217.277344 161.078125 218.191406 156.675781 216.355469 152.65625 C 215.371094 150.511719 213.324219 147.933594 212.640625 147.976562 C 212.410156 147.992188 211.261719 148.445312 210.089844 148.984375 M 95.933594 155.109375 C 95.542969 155.578125 95.5625 155.78125 96.050781 156.265625 C 96.882812 157.097656 97.949219 156.273438 97.390625 155.234375 C 96.941406 154.390625 96.554688 154.359375 95.933594 155.109375 M 331.664062 160.277344 C 331.289062 160.65625 331.375 161.792969 331.804688 162.058594 C 332.496094 162.484375 333.28125 161.503906 332.863281 160.726562 C 332.480469 160.007812 332.085938 159.859375 331.664062 160.277344 M 64.269531 163.691406 C 63.996094 164.554688 64.296875 165.160156 65.003906 165.160156 C 65.28125 165.160156 65.613281 164.996094 65.738281 164.792969 C 66.082031 164.234375 65.570312 162.964844 65.003906 162.964844 C 64.726562 162.964844 64.398438 163.292969 64.269531 163.691406 M 296.753906 163.539062 C 296.632812 163.851562 296.722656 164.300781 296.949219 164.527344 C 297.464844 165.042969 298.6875 163.992188 298.300781 163.363281 C 297.933594 162.773438 297.007812 162.878906 296.753906 163.539062 M 182.988281 164.886719 C 182.503906 165.542969 180.734375 168.21875 179.0625 170.835938 C 177.386719 173.457031 175.71875 175.9375 175.351562 176.355469 C 174.5 177.316406 174.507812 178.117188 175.367188 179.367188 C 175.742188 179.914062 177.6875 182.925781 179.683594 186.058594 C 181.679688 189.195312 183.65625 192.234375 184.078125 192.8125 L 184.84375 193.863281 L 186.964844 190.589844 C 193.636719 180.292969 194.941406 178.195312 194.933594 177.796875 C 194.929688 177.59375 192.835938 174.339844 190.277344 170.5625 C 185.117188 162.933594 184.691406 162.601562 182.988281 164.886719 M 91.246094 166.734375 C 90.667969 167.433594 91.660156 168.84375 92.292969 168.222656 C 92.792969 167.730469 92.648438 166.5625 92.066406 166.371094 C 91.84375 166.296875 91.476562 166.460938 91.246094 166.734375 M 181.660156 172.679688 C 180.019531 175.203125 178.589844 177.503906 178.480469 177.789062 C 178.296875 178.269531 184.09375 187.867188 184.566406 187.867188 C 184.804688 187.867188 186.660156 185.296875 189.410156 181.152344 L 191.316406 178.28125 L 190.597656 177.035156 C 188.679688 173.703125 185.09375 168.09375 184.882812 168.09375 C 184.75 168.089844 183.300781 170.15625 181.660156 172.679688 M 27.464844 173.382812 L 27.464844 175.78125 L 31.894531 175.78125 L 31.675781 171.203125 L 27.464844 170.984375 Z M 123.632812 171.601562 C 123.339844 172.375 123.667969 172.851562 124.492188 172.851562 C 125.3125 172.851562 125.703125 171.992188 125.140625 171.429688 C 124.558594 170.847656 123.894531 170.921875 123.632812 171.601562 M 258.976562 177.703125 C 259.042969 178.15625 259.339844 178.527344 259.644531 178.527344 C 259.945312 178.527344 260.246094 178.15625 260.308594 177.703125 C 260.398438 177.070312 260.246094 176.878906 259.644531 176.878906 C 259.039062 176.878906 258.886719 177.070312 258.976562 177.703125 M 301.167969 178.140625 C 300.875 178.894531 301.65625 179.824219 302.351562 179.558594 C 303.082031 179.277344 302.835938 177.832031 302.03125 177.679688 C 301.679688 177.613281 301.289062 177.820312 301.167969 178.140625 M 135.332031 180.816406 C 134.667969 187.722656 133.402344 206.976562 133.523438 208.394531 C 133.746094 211.035156 136.402344 231.042969 138.988281 249.574219 C 141.855469 270.117188 141.589844 269.03125 142.832031 265.28125 C 143.289062 263.890625 144.394531 260.945312 145.28125 258.726562 C 146.171875 256.511719 148.722656 249.921875 150.949219 244.078125 C 153.179688 238.238281 155.734375 231.5625 156.632812 229.246094 C 157.53125 226.933594 159.347656 222.152344 160.671875 218.628906 C 163.015625 212.371094 163.066406 212.175781 162.667969 210.386719 C 160.761719 201.761719 158.101562 191.273438 157.738281 190.917969 C 157.488281 190.679688 154.898438 189.132812 151.976562 187.480469 C 148.421875 185.46875 144.871094 183.445312 141.328125 181.410156 C 138.390625 179.726562 135.894531 178.34375 135.78125 178.34375 C 135.664062 178.34375 135.464844 179.457031 135.332031 180.816406 M 229.066406 180.78125 C 226.648438 182.097656 222.199219 184.625 219.175781 186.390625 C 216.15625 188.160156 213.171875 189.867188 212.546875 190.183594 C 211.144531 190.894531 210.898438 191.515625 209.476562 197.9375 C 208.851562 200.757812 207.84375 205.140625 207.238281 207.675781 L 206.136719 212.289062 L 209.050781 219.945312 C 213.097656 230.585938 226.082031 263.828125 227.058594 266.050781 C 227.753906 267.628906 227.90625 267.78125 228.164062 267.152344 C 228.328125 266.746094 228.476562 265.792969 228.488281 265.023438 C 228.503906 264.257812 229.085938 259.5625 229.785156 254.589844 C 230.480469 249.613281 231.476562 242.414062 231.992188 238.585938 C 232.511719 234.757812 233.167969 229.980469 233.449219 227.964844 C 233.734375 225.953125 234.222656 222.246094 234.539062 219.726562 C 234.851562 217.207031 235.324219 213.5 235.582031 211.488281 C 236.007812 208.199219 235.953125 206.324219 235.0625 193.175781 C 234.515625 185.121094 234.058594 178.488281 234.039062 178.4375 C 233.953125 178.179688 233.097656 178.582031 229.066406 180.78125 M 328.855469 184.386719 L 328.855469 186.765625 L 332.886719 186.765625 L 332.886719 182.007812 L 328.855469 182.007812 Z M 137.945312 183.378906 C 137.769531 183.679688 137.609375 185.78125 136.769531 198.886719 L 136.21875 207.53125 L 137.15625 214.820312 C 137.675781 218.828125 138.574219 225.816406 139.160156 230.347656 C 139.867188 235.816406 140.59375 241.285156 141.339844 246.753906 C 141.953125 251.246094 142.457031 255.324219 142.457031 255.816406 C 142.457031 256.308594 142.59375 256.714844 142.761719 256.714844 C 143.046875 256.714844 143.691406 255.171875 147.050781 246.460938 C 155.730469 223.96875 160.035156 212.558594 160.035156 212.03125 C 160.035156 211.683594 159.367188 208.53125 158.554688 205.03125 C 157.855469 202.019531 157.160156 199.003906 156.472656 195.988281 C 155.8125 193.070312 155.699219 192.941406 151.976562 190.902344 C 150.875 190.300781 149.777344 189.6875 148.679688 189.070312 C 147.976562 188.667969 146.082031 187.597656 144.46875 186.691406 C 142.859375 185.785156 140.769531 184.605469 139.824219 184.074219 C 138.878906 183.539062 138.035156 183.226562 137.945312 183.378906 M 222.289062 187.996094 C 213.898438 192.710938 213.671875 192.867188 213.253906 194.285156 C 213.019531 195.085938 211.96875 199.445312 210.921875 203.976562 C 209.238281 211.238281 209.066406 212.34375 209.464844 213.316406 C 209.714844 213.921875 210.453125 215.816406 211.109375 217.527344 L 213.484375 223.753906 C 214.136719 225.46875 215.050781 227.855469 215.507812 229.066406 C 215.96875 230.273438 218.070312 235.628906 220.175781 240.964844 C 222.285156 246.304688 224.476562 251.90625 225.046875 253.417969 C 225.617188 254.929688 226.203125 256.304688 226.347656 256.476562 C 226.78125 256.988281 226.679688 257.660156 230.164062 231.628906 C 230.867188 226.390625 231.878906 219 232.417969 215.199219 L 233.394531 208.292969 L 232.59375 197.074219 C 232.152344 190.902344 231.796875 185.234375 231.800781 184.480469 C 231.808594 183.605469 231.644531 183.117188 231.355469 183.132812 C 231.101562 183.148438 227.023438 185.335938 222.289062 187.996094 M 289.152344 185.257812 C 289.042969 185.433594 289.023438 186.710938 289.105469 188.09375 C 289.191406 189.480469 289.269531 190.820312 289.28125 191.070312 C 289.300781 191.425781 291.945312 191.527344 301.207031 191.527344 L 313.109375 191.527344 L 313.109375 184.9375 L 301.230469 184.9375 C 294.695312 184.9375 289.261719 185.082031 289.152344 185.257812 M 227.601562 188.839844 C 224.347656 190.554688 215.699219 195.664062 215.699219 195.867188 C 215.699219 196 214.945312 199.84375 214.027344 204.410156 L 212.359375 212.71875 L 217.371094 225.46875 C 220.125 232.480469 222.671875 239.042969 223.03125 240.050781 C 223.386719 241.058594 224 242.582031 224.390625 243.441406 L 225.105469 245 L 225.570312 241.976562 C 225.828125 240.3125 226.164062 237.964844 226.320312 236.753906 C 226.476562 235.546875 227.386719 229.285156 228.339844 222.839844 C 229.292969 216.394531 230.15625 210.097656 230.253906 208.847656 C 230.351562 207.601562 230.15625 202.984375 229.816406 198.59375 C 229.480469 194.203125 229.175781 190.078125 229.136719 189.421875 C 229.054688 188.0625 229.066406 188.066406 227.601562 188.839844 M 140.503906 189.789062 C 140.390625 190.445312 140.195312 192.625 140.066406 194.640625 C 139.9375 196.65625 139.78125 198.640625 139.714844 199.054688 C 139.652344 199.46875 139.492188 201.941406 139.355469 204.550781 C 139.144531 208.609375 139.246094 210.210938 140.0625 215.699219 C 141.035156 222.269531 141.730469 227.257812 143.226562 238.3125 C 143.695312 241.785156 144.1875 244.628906 144.316406 244.628906 C 144.441406 244.628906 145.046875 243.269531 145.65625 241.609375 C 146.269531 239.945312 148.277344 234.714844 150.125 229.980469 C 155.910156 215.160156 156.738281 212.898438 156.738281 211.953125 C 156.738281 210.933594 153.585938 196.085938 153.257812 195.554688 C 152.863281 194.917969 141.597656 188.597656 140.859375 188.597656 C 140.773438 188.597656 140.613281 189.132812 140.503906 189.789062 M 120.980469 189.878906 C 120.683594 190.664062 121.09375 191.527344 121.765625 191.527344 C 122.542969 191.527344 122.867188 190.546875 122.308594 189.875 C 121.734375 189.179688 121.25 189.183594 120.980469 189.878906 M 257.144531 194.914062 C 257.210938 195.367188 257.511719 195.738281 257.8125 195.738281 C 258.113281 195.738281 258.414062 195.367188 258.480469 194.914062 C 258.570312 194.28125 258.414062 194.089844 257.8125 194.089844 C 257.210938 194.089844 257.054688 194.28125 257.144531 194.914062 M 55.664062 236.148438 L 55.664062 277.960938 L 80.25 277.863281 L 104.832031 277.769531 L 104.917969 275.117188 C 104.976562 273.363281 104.863281 272.457031 104.59375 272.445312 C 104.371094 272.4375 95.945312 272.429688 85.875 272.429688 C 75.113281 272.429688 66.902344 272.277344 65.953125 272.0625 C 63.84375 271.585938 62.421875 270.539062 61.621094 268.871094 C 61.023438 267.625 60.972656 265.867188 60.972656 246.644531 C 60.972656 226.648438 61.003906 225.71875 61.683594 224.597656 C 62.074219 223.953125 62.898438 223.046875 63.515625 222.582031 C 64.605469 221.765625 64.898438 221.738281 73.792969 221.621094 L 82.949219 221.503906 L 69.476562 208.074219 C 62.066406 200.683594 55.929688 194.574219 55.835938 194.488281 C 55.742188 194.40625 55.664062 213.152344 55.664062 236.148438 M 297.113281 201.441406 L 291.9375 206.542969 L 275.386719 206.542969 C 256.808594 206.542969 257.261719 206.484375 255.511719 209.183594 L 254.515625 210.71875 L 254.515625 242.5625 L 249.296875 247.742188 C 243.046875 253.949219 228.621094 268.648438 225.035156 272.464844 C 220.453125 277.347656 224.675781 273.253906 236.695312 261.167969 C 250.914062 246.871094 254.074219 243.742188 254.429688 243.621094 C 254.578125 243.570312 254.652344 247.082031 254.59375 251.421875 C 254.492188 258.988281 254.523438 259.371094 255.300781 260.753906 C 255.746094 261.546875 256.769531 262.652344 257.570312 263.207031 C 258.992188 264.195312 259.179688 264.222656 264.714844 264.316406 C 267.839844 264.371094 270.449219 264.46875 270.515625 264.535156 C 270.582031 264.601562 270.59375 273.101562 270.542969 283.425781 L 270.445312 302.195312 L 261.753906 293.628906 L 253.058594 285.066406 L 255.425781 282.722656 C 256.726562 281.429688 257.710938 280.292969 257.609375 280.191406 C 257.507812 280.089844 256.359375 281.066406 255.058594 282.355469 L 252.691406 284.699219 L 243.148438 275.058594 C 237.902344 269.753906 233.5 265.523438 233.375 265.648438 C 233.246094 265.777344 237.332031 270.085938 242.453125 275.21875 C 247.578125 280.351562 251.816406 284.769531 251.875 285.027344 C 251.933594 285.289062 248.226562 289.207031 243.636719 293.730469 C 235.789062 301.460938 235.015625 302.117188 230.710938 304.6875 C 228.195312 306.191406 225.394531 307.933594 224.488281 308.558594 L 222.839844 309.691406 L 222.910156 318.074219 C 222.996094 327.734375 222.484375 326.535156 227.601562 329.117188 C 229.414062 330.03125 231.308594 331.066406 231.8125 331.417969 C 232.316406 331.769531 233.757812 332.589844 235.015625 333.238281 L 237.300781 334.421875 L 241.238281 332.066406 C 243.40625 330.773438 246.273438 329.101562 247.617188 328.355469 C 248.957031 327.613281 250.238281 326.777344 250.46875 326.5 C 250.765625 326.140625 250.839844 323.574219 250.71875 317.628906 C 250.628906 313.03125 250.539062 309.230469 250.519531 309.191406 C 250.503906 309.152344 249.375 308.492188 248.015625 307.730469 C 246.65625 306.964844 244.886719 305.96875 244.078125 305.511719 C 243.273438 305.054688 241.523438 304.113281 240.1875 303.421875 C 238.855469 302.730469 237.652344 301.871094 237.515625 301.519531 C 237.328125 301.027344 239.050781 299.101562 244.980469 293.167969 L 252.691406 285.460938 L 261.671875 294.460938 L 270.652344 303.457031 L 270.550781 308.742188 L 270.445312 314.027344 L 264.039062 314.21875 L 257.628906 314.410156 L 264.039062 314.582031 L 270.445312 314.757812 L 270.632812 344.96875 C 270.734375 361.585938 270.882812 374.851562 270.960938 374.449219 C 271.035156 374.046875 271.117188 360.453125 271.140625 344.238281 L 271.179688 314.757812 L 308.898438 314.625 L 309 307.269531 C 309.050781 303.226562 308.945312 299.136719 308.765625 298.183594 C 308.519531 296.90625 308.417969 298.679688 308.386719 304.871094 C 308.359375 309.503906 308.203125 313.507812 308.035156 313.769531 C 307.796875 314.148438 305.148438 314.222656 295.042969 314.136719 L 282.351562 314.027344 L 271.1875 302.863281 L 271.246094 283.765625 C 271.28125 271.699219 271.433594 264.585938 271.660156 264.445312 C 271.859375 264.320312 275.085938 264.269531 278.828125 264.328125 L 285.636719 264.433594 L 285.734375 278.0625 C 285.792969 285.554688 285.839844 281.800781 285.839844 269.714844 C 285.839844 257.628906 285.796875 251.332031 285.738281 255.722656 L 285.628906 263.707031 L 272.363281 263.597656 C 257.464844 263.476562 257.570312 263.496094 256.015625 260.726562 C 255.257812 259.378906 255.25 259.046875 255.25 235.058594 C 255.25 211.597656 255.277344 210.714844 255.964844 209.582031 C 256.359375 208.9375 257.222656 208.113281 257.886719 207.75 C 259.015625 207.132812 260.699219 207.09375 284.277344 207.117188 C 308.859375 207.136719 309.480469 207.15625 310.4375 207.871094 C 310.976562 208.273438 311.757812 209.058594 312.171875 209.613281 C 312.902344 210.589844 312.925781 211.066406 312.925781 223.691406 L 312.925781 236.753906 L 305.785156 236.949219 C 301.859375 237.058594 298.808594 237.207031 299.011719 237.285156 C 299.210938 237.363281 302.425781 237.449219 306.152344 237.476562 L 312.925781 237.527344 L 313.109375 243.367188 C 313.273438 248.617188 313.324219 248.964844 313.597656 246.824219 C 313.765625 245.515625 313.847656 242.941406 313.78125 241.101562 L 313.660156 237.753906 L 315.671875 237.574219 C 316.78125 237.476562 322.527344 237.449219 328.441406 237.519531 C 339.292969 237.644531 341.117188 237.847656 342.535156 239.089844 C 344.265625 240.605469 344.238281 240.152344 344.238281 266.34375 C 344.238281 283.414062 344.113281 291.386719 343.832031 292.1875 C 343.5625 292.964844 342.867188 293.679688 341.726562 294.347656 L 340.027344 295.347656 L 311.097656 295.539062 C 293.972656 295.652344 287.546875 295.765625 295.347656 295.824219 C 302.601562 295.878906 315.675781 295.910156 324.410156 295.898438 C 341.75 295.875 341.652344 295.886719 343.6875 293.722656 L 344.789062 292.554688 L 344.789062 266.605469 C 344.789062 240.964844 344.777344 240.640625 344.03125 239.644531 C 343.617188 239.085938 342.824219 238.292969 342.265625 237.875 C 341.300781 237.152344 340.671875 237.113281 327.53125 236.9375 L 313.804688 236.753906 L 313.832031 224.476562 C 313.863281 211.75 313.753906 210.640625 312.292969 208.75 C 310.640625 206.605469 310.347656 206.546875 301.300781 206.546875 C 296.71875 206.542969 292.96875 206.425781 292.96875 206.285156 C 292.96875 206.144531 295.152344 203.9375 297.820312 201.382812 C 300.488281 198.832031 302.589844 196.648438 302.484375 196.539062 C 302.378906 196.425781 299.964844 198.632812 297.113281 201.441406 M 165.820312 197.769531 C 164.816406 198.773438 164.730469 199.039062 164.949219 200.425781 C 165.265625 202.445312 166.390625 203.523438 168.605469 203.9375 C 170.074219 204.210938 170.6875 204.589844 172.023438 206.046875 C 172.917969 207.023438 173.757812 208.152344 173.894531 208.558594 C 174.03125 208.960938 174.085938 213.835938 174.019531 219.390625 L 173.898438 229.492188 L 168.734375 233.289062 C 164.375 236.496094 163.335938 237.101562 162.082031 237.167969 C 159.035156 237.324219 157.523438 240.765625 159.476562 243.089844 C 160.605469 244.425781 162.273438 244.816406 163.710938 244.070312 C 165.128906 243.335938 165.652344 242.257812 165.386719 240.601562 C 165.171875 239.253906 165.199219 239.21875 167.636719 237.574219 C 168.996094 236.660156 171.589844 234.773438 173.402344 233.382812 L 176.695312 230.855469 L 176.796875 219.707031 C 176.917969 206.625 176.882812 206.441406 173.738281 203.753906 C 171.957031 202.234375 171.753906 201.910156 171.753906 200.613281 C 171.753906 198.789062 171.28125 197.90625 169.929688 197.207031 C 168.28125 196.355469 167.070312 196.519531 165.820312 197.769531 M 199.257812 197.167969 C 198.101562 197.808594 197.417969 199.105469 197.402344 200.699219 C 197.390625 201.808594 197.050781 202.316406 195.066406 204.207031 C 193.464844 205.734375 192.667969 206.792969 192.503906 207.625 C 192.042969 209.921875 192.234375 229.722656 192.722656 230.675781 C 193.089844 231.378906 199.144531 236.074219 203.167969 238.769531 C 203.742188 239.152344 204.03125 239.773438 204.128906 240.824219 C 204.363281 243.382812 204.875 243.953125 207.277344 244.328125 C 210.332031 244.808594 212.113281 240.824219 209.929688 238.390625 C 209.125 237.496094 208.585938 237.25 207.246094 237.175781 C 205.851562 237.09375 205.074219 236.714844 202.667969 234.941406 C 200.941406 233.671875 199.210938 232.40625 197.480469 231.144531 L 195.191406 229.480469 L 195.191406 207.75 L 197.394531 205.679688 C 199.320312 203.875 199.78125 203.613281 201.074219 203.613281 C 203.105469 203.613281 204.347656 202.289062 204.347656 200.113281 C 204.347656 198.820312 204.152344 198.390625 203.21875 197.601562 C 201.984375 196.566406 200.617188 196.414062 199.257812 197.167969 M 37.042969 197.71875 C 36.378906 198.132812 36.65625 199.363281 37.449219 199.515625 C 37.800781 199.582031 38.191406 199.367188 38.320312 199.035156 C 38.621094 198.253906 37.703125 197.3125 37.042969 197.71875 M 200.410156 198.730469 C 199.726562 199.003906 199.835938 201.027344 200.550781 201.304688 C 201.953125 201.839844 203.136719 199.847656 201.933594 198.96875 C 201.234375 198.457031 201.125 198.4375 200.410156 198.730469 M 167.132812 199.378906 C 166.777344 200.308594 167.160156 201.230469 167.945312 201.34375 C 168.925781 201.484375 169.683594 200.5625 169.378906 199.601562 C 169.097656 198.722656 167.449219 198.558594 167.132812 199.378906 M 324.460938 206.359375 C 324.460938 207.414062 325.699219 207.671875 326.074219 206.691406 C 326.371094 205.910156 326.035156 205.445312 325.171875 205.445312 C 324.660156 205.445312 324.460938 205.699219 324.460938 206.359375 M 184.09375 207 C 183.535156 207.414062 183.464844 208.757812 183.382812 220.457031 L 183.289062 233.460938 L 175.910156 238.953125 C 164 247.816406 158.074219 252.128906 157.648438 252.238281 C 157.429688 252.296875 156.363281 251.414062 155.277344 250.273438 L 153.300781 248.203125 L 152.640625 249.019531 C 152.273438 249.46875 151.976562 250.097656 151.976562 250.414062 C 151.976562 250.730469 153.132812 252.117188 154.542969 253.496094 C 156.832031 255.730469 157.195312 255.957031 157.886719 255.589844 C 159.019531 254.984375 175.085938 243.328125 179.835938 239.664062 C 182.082031 237.933594 184.148438 236.429688 184.429688 236.320312 C 184.722656 236.210938 186.488281 237.304688 188.511719 238.851562 C 196.972656 245.316406 211.539062 255.625 212.195312 255.605469 C 212.636719 255.589844 213.699219 254.652344 216.019531 252.226562 C 217.34375 250.84375 217.582031 250.382812 217.386719 249.601562 C 217.042969 248.230469 216.253906 248.429688 213.960938 250.472656 C 212.789062 251.515625 211.742188 252.179688 211.503906 252.03125 C 210.011719 251.097656 196.601562 241.332031 191.894531 237.75 L 186.21875 233.433594 L 186.121094 220.476562 C 186.015625 206.386719 185.90625 205.65625 184.09375 207 M 40.261719 215.542969 C 39.703125 216.214844 40.203125 217.347656 41.054688 217.347656 C 41.75 217.347656 41.90625 215.917969 41.265625 215.386719 C 40.859375 215.050781 40.640625 215.085938 40.261719 215.542969 M 262.558594 215.796875 C 261.644531 216.78125 261.648438 217.703125 262.574219 218.628906 C 263.964844 220.019531 265.871094 219.183594 265.871094 217.183594 C 265.871094 215.386719 263.761719 214.503906 262.558594 215.796875 M 269.910156 216.039062 C 269.34375 217.097656 269.449219 218.074219 270.199219 218.753906 C 272.097656 220.472656 274.792969 217.714844 272.984375 215.90625 C 272.167969 215.089844 270.378906 215.167969 269.910156 216.039062 M 276.421875 216.246094 C 275.511719 218.25 277.851562 220.230469 279.433594 218.796875 C 280.878906 217.492188 279.875 215.332031 277.824219 215.332031 C 277.128906 215.332031 276.71875 215.601562 276.421875 216.246094 M 64.460938 222.929688 C 63.757812 223.285156 62.8125 224.132812 62.355469 224.816406 L 61.523438 226.058594 L 61.523438 267.589844 L 62.347656 268.800781 C 62.800781 269.46875 63.636719 270.359375 64.207031 270.78125 C 65.230469 271.539062 65.425781 271.546875 91.699219 271.546875 L 118.160156 271.546875 L 119.957031 270.433594 C 121.015625 269.78125 122.097656 268.722656 122.578125 267.871094 L 123.402344 266.417969 L 123.40625 246.8125 L 123.414062 227.207031 L 122.589844 225.574219 C 122.046875 224.496094 121.265625 223.660156 120.300781 223.121094 L 118.835938 222.300781 L 92.285156 222.296875 C 67.730469 222.292969 65.640625 222.339844 64.460938 222.929688 M 296.722656 225.484375 C 295.089844 225.6875 294.527344 226.777344 295.535156 227.785156 C 296.179688 228.433594 296.554688 228.503906 298.195312 228.285156 L 300.105469 228.03125 L 297.855469 230.5625 C 296.613281 231.953125 295.089844 233.582031 294.460938 234.175781 L 293.320312 235.257812 L 287.8125 229.796875 L 285.539062 232.191406 C 284.289062 233.507812 282.203125 235.792969 280.90625 237.277344 L 278.550781 239.96875 L 276.878906 238.082031 C 275.960938 237.042969 274.9375 236.195312 274.605469 236.199219 C 274.273438 236.203125 271.8125 238.601562 269.140625 241.527344 C 265.867188 245.113281 264.1875 246.703125 264 246.398438 C 263.84375 246.148438 263.71875 242.085938 263.714844 237.371094 C 263.710938 232.65625 263.617188 228.707031 263.507812 228.59375 C 263.394531 228.484375 263.304688 233.636719 263.304688 240.046875 L 263.304688 251.699219 L 264.085938 251.003906 C 264.511719 250.617188 266.84375 248.082031 269.261719 245.359375 C 271.679688 242.640625 273.894531 240.226562 274.179688 239.992188 C 274.601562 239.652344 275.046875 239.921875 276.453125 241.367188 C 277.417969 242.355469 278.449219 243.164062 278.746094 243.164062 C 279.234375 243.164062 284.8125 237.105469 286.574219 234.660156 C 286.96875 234.113281 287.457031 233.664062 287.660156 233.660156 C 287.859375 233.660156 289.011719 234.792969 290.222656 236.183594 C 291.429688 237.570312 292.636719 238.804688 292.90625 238.921875 C 293.425781 239.148438 294.285156 238.328125 298.96875 233.164062 C 300.558594 231.414062 302 229.980469 302.171875 229.980469 C 302.347656 229.980469 302.488281 230.550781 302.488281 231.25 C 302.488281 232.535156 303.535156 233.578125 304.328125 233.089844 C 304.527344 232.964844 304.6875 231.246094 304.6875 229.265625 C 304.6875 226.320312 304.582031 225.625 304.109375 225.441406 C 303.496094 225.207031 298.734375 225.234375 296.722656 225.484375 M 35.523438 231.972656 C 35.523438 233.132812 36.171875 233.515625 36.898438 232.789062 C 37.371094 232.316406 37.390625 232.113281 37.003906 231.648438 C 36.289062 230.789062 35.523438 230.957031 35.523438 231.972656 M 85.472656 231.433594 C 82.128906 231.941406 78.324219 234.84375 77.054688 237.855469 C 76.714844 238.660156 76.335938 240.210938 76.210938 241.296875 C 75.996094 243.203125 75.9375 243.292969 74.558594 243.769531 C 71.234375 244.917969 69.28125 247.511719 68.945312 251.230469 C 68.703125 253.878906 69.246094 255.496094 71.058594 257.554688 C 72.976562 259.738281 74.597656 260.324219 79.179688 260.503906 C 84.84375 260.726562 87.460938 260.445312 87.9375 259.558594 C 88.148438 259.160156 88.1875 258.703125 88.015625 258.546875 C 87.847656 258.390625 85.03125 258.167969 81.757812 258.054688 C 74.832031 257.8125 73.710938 257.460938 72.316406 255.085938 C 71.039062 252.898438 70.839844 251.492188 71.554688 249.621094 C 72.410156 247.386719 73.613281 246.398438 76.082031 245.90625 L 78.1875 245.488281 L 78.382812 242.753906 C 78.777344 237.246094 82.105469 234.070312 87.628906 233.933594 C 89.4375 233.886719 90.285156 234.074219 91.769531 234.835938 C 93.84375 235.902344 95.8125 237.921875 96.171875 239.355469 C 96.359375 240.109375 96.5625 240.246094 97.183594 240.058594 C 101.152344 238.839844 103.550781 238.992188 105.128906 240.570312 C 105.882812 241.324219 106.195312 242.089844 106.390625 243.652344 C 106.640625 245.640625 106.695312 245.726562 107.71875 245.726562 C 110.199219 245.726562 112.851562 247.722656 113.574219 250.136719 C 114.140625 252.027344 113.707031 253.917969 112.355469 255.457031 C 110.394531 257.6875 109.558594 257.9375 103.273438 258.160156 L 97.59375 258.363281 L 97.59375 259.269531 C 97.59375 260.046875 97.8125 260.21875 99.058594 260.429688 C 100.984375 260.761719 108.164062 260.449219 110.121094 259.949219 C 113.578125 259.070312 116.214844 255.53125 116.214844 251.769531 C 116.214844 248.015625 113.78125 244.71875 110.363281 243.851562 C 109 243.503906 108.828125 243.328125 108.632812 242.125 C 108.386719 240.597656 106.625 238.273438 105.121094 237.496094 C 103.6875 236.757812 100.996094 236.457031 99.492188 236.875 C 98.25 237.214844 98.167969 237.171875 96.535156 235.28125 C 93.769531 232.074219 89.960938 230.75 85.472656 231.433594 M 161.398438 239.550781 C 160.597656 240 160.574219 241.648438 161.367188 241.953125 C 162.78125 242.496094 164.027344 240.265625 162.703125 239.558594 C 162.269531 239.324219 161.804688 239.324219 161.398438 239.550781 M 206.195312 240.027344 C 205.546875 240.8125 206.335938 242.066406 207.484375 242.066406 C 208.527344 242.066406 209.269531 240.726562 208.652344 239.960938 C 208.15625 239.339844 206.734375 239.378906 206.195312 240.027344 M 179.640625 243.652344 C 166.078125 253.625 160.035156 258.191406 160.058594 258.445312 C 160.089844 258.75 161.25 259.628906 174.039062 269.0625 C 183.539062 276.070312 184.402344 276.605469 185.34375 276.101562 C 186.144531 275.671875 197.5 267.539062 204.425781 262.433594 C 207.191406 260.394531 209.457031 258.554688 209.460938 258.339844 C 209.46875 258.128906 207.703125 256.644531 205.535156 255.046875 C 198.542969 249.890625 189.207031 243.085938 186.925781 241.488281 L 184.703125 239.929688 Z M 182.699219 244.894531 C 181.773438 245.65625 180.289062 246.792969 179.402344 247.425781 C 170.5625 253.742188 164.960938 257.9375 164.890625 258.296875 C 164.839844 258.53125 166.570312 260.011719 168.734375 261.578125 C 170.898438 263.148438 174.152344 265.578125 175.964844 266.980469 C 181.472656 271.246094 184.53125 273.261719 185.027344 272.957031 C 185.832031 272.460938 196.328125 264.910156 200.582031 261.765625 C 202.84375 260.09375 204.707031 258.589844 204.726562 258.421875 C 204.742188 258.253906 201.820312 255.984375 198.234375 253.375 C 194.648438 250.769531 190.265625 247.527344 188.5 246.175781 C 186.730469 244.820312 185.085938 243.667969 184.835938 243.613281 C 184.589844 243.558594 183.628906 244.136719 182.699219 244.894531 M 91.917969 245.609375 C 90.40625 246.570312 86.242188 251.53125 86.242188 252.375 C 86.242188 252.804688 86.542969 253.335938 86.90625 253.5625 C 87.445312 253.890625 87.722656 253.796875 88.398438 253.050781 C 88.855469 252.546875 89.765625 251.640625 90.421875 251.039062 L 91.617188 249.9375 L 91.546875 254.332031 C 91.453125 260.136719 91.464844 260.261719 92.101562 260.507812 C 93.570312 261.070312 93.75 260.507812 93.753906 255.300781 L 93.757812 250.304688 L 95.398438 252.085938 C 96.507812 253.285156 97.230469 253.792969 97.621094 253.640625 C 97.941406 253.519531 98.273438 253.417969 98.359375 253.417969 C 98.441406 253.417969 98.511719 252.988281 98.511719 252.460938 C 98.511719 251.8125 97.777344 250.65625 96.246094 248.890625 C 92.550781 244.628906 92.96875 244.945312 91.917969 245.609375 M 181.789062 249.488281 C 180.359375 250.542969 177.113281 252.886719 174.574219 254.699219 C 172.035156 256.511719 169.949219 258.183594 169.941406 258.410156 C 169.929688 258.640625 170.375 259.117188 170.929688 259.476562 C 171.484375 259.832031 174.160156 261.777344 176.878906 263.796875 C 182.1875 267.738281 183.777344 268.890625 184.445312 269.28125 C 184.679688 269.421875 186.820312 268.113281 189.289062 266.328125 C 191.71875 264.566406 195.121094 262.148438 196.84375 260.960938 C 198.5625 259.769531 199.925781 258.671875 199.871094 258.515625 C 199.8125 258.363281 197.296875 256.460938 194.273438 254.285156 C 191.253906 252.113281 187.957031 249.710938 186.949219 248.949219 C 185.945312 248.183594 184.953125 247.5625 184.753906 247.566406 C 184.550781 247.570312 183.21875 248.433594 181.789062 249.488281 M 315.976562 252.957031 C 315.308594 253.105469 314.582031 254.980469 311.683594 264.039062 C 306.117188 281.445312 306.09375 281.539062 307.019531 282.308594 C 308.089844 283.199219 308.699219 282.273438 310.332031 277.277344 C 314.234375 265.328125 317.503906 254.789062 317.503906 254.171875 C 317.503906 253.34375 316.785156 252.773438 315.976562 252.957031 M 264.222656 253.769531 C 265.9375 254.1875 280.257812 254.203125 280.882812 253.792969 C 281.253906 253.546875 278.421875 253.441406 272.277344 253.46875 C 267.242188 253.488281 263.617188 253.625 264.222656 253.769531 M 150.746094 256.660156 C 150.414062 257.023438 150.144531 257.585938 150.144531 257.910156 C 150.144531 258.46875 153.074219 261.027344 157.46875 264.3125 C 159.824219 266.070312 166.023438 270.816406 167.503906 271.992188 L 168.527344 272.804688 L 167.222656 276.9375 C 166.503906 279.207031 165.09375 283.769531 164.089844 287.074219 C 163.085938 290.378906 162.101562 293.246094 161.898438 293.449219 C 161.648438 293.695312 160.378906 292.765625 158.035156 290.613281 C 156.113281 288.847656 154.539062 287.359375 154.539062 287.308594 C 154.539062 287.253906 155.855469 283.707031 157.460938 279.421875 C 159.066406 275.136719 160.261719 271.4375 160.117188 271.203125 C 159.230469 269.769531 150.171875 262.515625 149.441406 262.652344 C 149.097656 262.71875 148.820312 263.214844 148.753906 263.878906 C 148.660156 264.84375 148.9375 265.246094 150.769531 266.816406 C 151.9375 267.820312 153.632812 269.195312 154.539062 269.875 C 157.746094 272.273438 157.730469 271.554688 154.722656 279.316406 C 153.257812 283.097656 151.933594 286.597656 151.785156 287.089844 C 151.542969 287.894531 152.105469 288.550781 157.148438 293.40625 C 160.246094 296.386719 162.894531 298.824219 163.03125 298.824219 C 163.167969 298.828125 163.386719 298.457031 163.519531 298.003906 C 164.675781 293.996094 165.6875 291.136719 165.949219 291.136719 C 166.121094 291.136719 167.816406 292.542969 169.71875 294.257812 L 173.171875 297.378906 L 175.117188 295.691406 C 178.589844 292.675781 178.34375 293.503906 178.34375 284.714844 C 178.34375 277.988281 178.261719 276.824219 177.75 276.3125 C 177.421875 275.984375 176.910156 275.804688 176.621094 275.917969 C 176.328125 276.03125 176.019531 276.121094 175.933594 276.121094 C 175.851562 276.121094 175.78125 279.671875 175.78125 284.011719 C 175.78125 291.902344 175.78125 291.902344 174.882812 292.800781 C 174.386719 293.296875 173.769531 293.699219 173.507812 293.699219 C 173.25 293.695312 172.121094 292.914062 171.003906 291.957031 C 169.929688 291.042969 168.855469 290.128906 167.777344 289.222656 L 166.585938 288.21875 L 167.378906 285.375 C 167.820312 283.8125 168.898438 280.324219 169.78125 277.625 C 170.664062 274.925781 171.386719 272.421875 171.386719 272.0625 C 171.386719 271.695312 170.476562 270.703125 169.332031 269.828125 C 167.40625 268.335938 165.484375 266.839844 163.566406 265.335938 C 158.371094 261.265625 152.238281 256.546875 151.75 256.25 C 151.527344 256.113281 151.074219 256.296875 150.746094 256.660156 M 216.023438 257.554688 C 213.046875 259.777344 210.066406 262 207.085938 264.222656 C 203.296875 267.039062 199.625 269.855469 198.925781 270.472656 L 197.648438 271.597656 L 199.140625 276.148438 C 200.027344 278.871094 200.90625 281.59375 201.777344 284.320312 L 202.925781 287.941406 L 201.53125 289.074219 C 200.761719 289.699219 199.269531 291.015625 198.21875 292.003906 L 196.300781 293.796875 L 195.011719 292.816406 C 194.304688 292.273438 193.710938 291.554688 193.691406 291.210938 C 193.671875 290.867188 193.660156 287.515625 193.667969 283.757812 C 193.675781 278.519531 193.5625 276.773438 193.175781 276.253906 C 192.773438 275.714844 192.535156 275.65625 192.007812 275.976562 C 191.234375 276.449219 190.976562 279.351562 190.980469 287.613281 L 190.980469 292.695312 L 193.175781 294.695312 C 194.382812 295.796875 195.625 296.832031 195.929688 297 C 196.339844 297.21875 197.359375 296.484375 199.777344 294.222656 C 201.585938 292.53125 203.203125 291.191406 203.371094 291.246094 C 203.539062 291.300781 204.128906 292.742188 204.679688 294.449219 C 206.277344 299.425781 205.632812 299.527344 211.949219 293.300781 C 215.019531 290.273438 217.527344 287.566406 217.527344 287.28125 C 217.527344 286.992188 217.101562 285.644531 216.582031 284.28125 C 214.625 279.160156 212.402344 272.691406 212.40625 272.128906 C 212.40625 271.808594 213.957031 270.332031 215.855469 268.851562 C 220.511719 265.214844 220.996094 264.675781 220.476562 263.707031 C 220.25 263.285156 219.890625 262.9375 219.671875 262.9375 C 218.972656 262.9375 209.933594 269.859375 209.382812 270.816406 C 209.132812 271.253906 210.144531 274.375 213.511719 283.578125 L 214.699219 286.824219 L 211.175781 290.34375 C 208.929688 292.59375 207.53125 293.734375 207.3125 293.507812 C 207.121094 293.3125 206.523438 291.585938 205.980469 289.671875 C 204.796875 285.480469 202.90625 279.175781 201.667969 275.296875 L 200.761719 272.457031 L 201.910156 271.648438 C 205.101562 269.414062 216.121094 261.15625 217.800781 259.742188 C 219.714844 258.128906 219.71875 258.128906 219.164062 257.054688 C 218.859375 256.464844 218.488281 255.988281 218.34375 255.996094 C 218.199219 256.007812 217.152344 256.707031 216.023438 257.554688 M 296.214844 262.179688 C 290.46875 266.054688 289.15625 267.25 289.550781 268.273438 C 289.769531 268.847656 293.675781 271.820312 298.902344 275.390625 C 302.21875 277.660156 302.910156 278 303.390625 277.601562 C 303.699219 277.34375 303.953125 276.761719 303.953125 276.3125 C 303.953125 275.664062 302.828125 274.726562 298.640625 271.886719 C 295.714844 269.90625 293.378906 268.113281 293.449219 267.902344 C 293.515625 267.691406 294.878906 266.628906 296.476562 265.542969 C 303.699219 260.628906 304.003906 260.375 303.882812 259.335938 C 303.671875 257.496094 302.527344 257.921875 296.214844 262.179688 M 322.785156 258.945312 C 322.28125 259.503906 322.207031 259.839844 322.488281 260.304688 C 322.699219 260.648438 325.03125 262.410156 327.675781 264.222656 C 330.320312 266.035156 332.488281 267.683594 332.5 267.882812 C 332.507812 268.085938 331.40625 268.992188 330.050781 269.898438 C 325.0625 273.226562 321.53125 275.851562 321.53125 276.226562 C 321.53125 276.953125 322.691406 277.90625 323.308594 277.6875 C 324.039062 277.425781 331.136719 272.59375 334.074219 270.355469 C 335.5625 269.226562 336.179688 268.507812 336.179688 267.914062 C 336.179688 266.984375 334.386719 265.464844 328.492188 261.40625 C 323.640625 258.066406 323.597656 258.046875 322.785156 258.945312 M 40.160156 263.183594 C 39.777344 263.566406 39.875 264.703125 40.320312 264.976562 C 40.539062 265.113281 40.976562 264.964844 41.292969 264.648438 C 41.765625 264.175781 41.785156 263.976562 41.398438 263.507812 C 40.886719 262.890625 40.542969 262.800781 40.160156 263.183594 M 105.625 272.429688 C 105.539062 272.515625 105.46875 273.792969 105.46875 275.269531 L 105.46875 277.953125 L 113.3125 277.953125 C 117.625 277.953125 121.457031 278.0625 121.828125 278.195312 C 122.195312 278.324219 121.179688 277.042969 119.566406 275.34375 L 116.636719 272.257812 L 111.210938 272.269531 C 108.222656 272.273438 105.710938 272.347656 105.625 272.429688 M 21.878906 276.214844 C 21.785156 276.464844 21.726562 277.578125 21.75 278.6875 L 21.789062 280.699219 L 23.894531 280.808594 L 26 280.921875 L 26 275.757812 L 24.027344 275.757812 C 22.78125 275.757812 21.988281 275.925781 21.878906 276.214844 M 55.664062 296.449219 L 55.664062 314.214844 L 80.292969 314.121094 L 104.917969 314.027344 L 104.917969 278.871094 L 80.292969 278.777344 L 55.664062 278.679688 Z M 184.113281 279.8125 C 183.523438 280.15625 183.472656 281.09375 183.472656 291.109375 C 183.472656 300.148438 183.5625 302.109375 183.996094 302.46875 C 184.414062 302.816406 184.675781 302.75 185.277344 302.148438 C 186.007812 301.417969 186.035156 301.015625 186.035156 290.84375 C 186.035156 279.308594 185.9375 278.75 184.113281 279.8125 M 234.984375 287.71875 C 234.550781 288.152344 234.726562 289.222656 235.265625 289.429688 C 235.933594 289.6875 236.71875 288.753906 236.441406 288.03125 C 236.222656 287.460938 235.417969 287.289062 234.984375 287.71875 M 190.808594 298.804688 C 190.601562 299.195312 190.429688 300.902344 190.429688 302.597656 L 190.429688 305.6875 L 189.027344 306.660156 C 188.253906 307.195312 187.152344 308.121094 186.578125 308.722656 C 186.003906 309.324219 185.371094 309.816406 185.175781 309.816406 C 184.90625 309.816406 180.414062 306.648438 179.078125 305.515625 C 178.976562 305.433594 178.8125 303.851562 178.710938 302.003906 C 178.53125 298.707031 178.511719 298.644531 177.570312 298.535156 C 176.828125 298.449219 176.558594 298.613281 176.382812 299.265625 C 176.09375 300.339844 176.089844 304.980469 176.375 306.046875 C 176.5 306.511719 178.355469 308.179688 180.78125 310 L 184.96875 313.144531 L 188.15625 310.6875 C 193.695312 306.421875 193.359375 306.929688 193.359375 302.808594 C 193.359375 299.53125 193.292969 299.1875 192.546875 298.664062 C 191.492188 297.929688 191.265625 297.945312 190.808594 298.804688 M 232.15625 304.632812 C 229.648438 306.214844 226.816406 307.953125 225.859375 308.496094 C 224.902344 309.035156 224.121094 309.605469 224.121094 309.757812 C 224.121094 309.914062 226.140625 311.207031 228.605469 312.636719 C 235.652344 316.714844 236.136719 316.960938 236.457031 316.644531 C 236.730469 316.371094 237.097656 301.757812 236.828125 301.757812 C 236.765625 301.757812 234.660156 303.050781 232.15625 304.632812 M 87.929688 302.625 C 87.507812 303.136719 87.730469 304.320312 88.25 304.320312 C 88.789062 304.320312 89.4375 303.230469 89.226562 302.679688 C 88.960938 301.988281 88.472656 301.96875 87.929688 302.625 M 237.503906 309.699219 C 237.515625 314.816406 237.636719 316.578125 237.976562 316.691406 C 238.484375 316.859375 249.753906 310.265625 249.753906 309.796875 C 249.753906 309.632812 249.304688 309.273438 248.75 308.992188 C 246.765625 307.984375 242.574219 305.628906 240.320312 304.257812 C 239.058594 303.484375 237.902344 302.855469 237.753906 302.855469 C 237.609375 302.855469 237.496094 305.933594 237.503906 309.699219 M 130.886719 303.964844 C 129.019531 304.335938 126.234375 305.625 125.46875 306.472656 C 124.96875 307.023438 124.875 308.785156 124.792969 319.175781 C 124.6875 332.203125 124.683594 332.175781 126.671875 333.589844 C 128.75 335.070312 131.828125 335.542969 138.421875 335.390625 C 144.292969 335.257812 144.566406 335.214844 146.679688 334.160156 C 148.140625 333.429688 149.03125 332.714844 149.371094 332 C 149.773438 331.152344 149.875 328.550781 149.851562 319.605469 C 149.824219 309.9375 149.734375 308.152344 149.242188 307.398438 C 148.347656 306.035156 145.796875 304.589844 143.371094 304.074219 C 140.964844 303.558594 133.269531 303.492188 130.886719 303.964844 M 271.179688 309.175781 L 271.179688 314.027344 L 276.214844 314.128906 C 278.984375 314.183594 281.25 314.121094 281.25 313.988281 C 281.25 313.695312 271.691406 304.320312 271.390625 304.324219 C 271.273438 304.324219 271.179688 306.507812 271.179688 309.175781 M 130.734375 305.164062 C 127.046875 305.996094 124.746094 308.148438 125.96875 309.621094 C 126.578125 310.355469 129.78125 311.5 132.203125 311.847656 C 137.558594 312.617188 146.132812 311.558594 148.039062 309.894531 C 149.472656 308.644531 148.277344 307.011719 144.980469 305.707031 C 143.367188 305.070312 142.070312 304.90625 137.878906 304.820312 C 134.71875 304.75 131.976562 304.882812 130.734375 305.164062 M 148.042969 311.105469 C 146.105469 312.46875 143.566406 312.882812 137.144531 312.878906 C 130.910156 312.875 129.671875 312.679688 125.835938 311.085938 C 125.1875 310.8125 125.160156 310.941406 125.414062 313.296875 C 125.5625 314.671875 125.847656 316.15625 126.046875 316.597656 C 126.769531 318.183594 129.878906 319.148438 135.515625 319.539062 C 139.757812 319.832031 143.652344 319.289062 146.304688 318.035156 C 148.628906 316.9375 149.128906 315.957031 148.976562 312.796875 L 148.863281 310.527344 Z M 223.605469 316.683594 C 223.621094 320.054688 223.664062 323.285156 223.695312 323.859375 L 223.753906 324.902344 L 225.128906 324.074219 C 227.105469 322.886719 230.542969 320.890625 233.183594 319.394531 C 234.445312 318.683594 235.472656 317.992188 235.472656 317.855469 C 235.472656 317.722656 233.535156 316.488281 231.171875 315.113281 C 228.804688 313.738281 226.179688 312.148438 225.335938 311.578125 C 224.496094 311.011719 223.753906 310.546875 223.6875 310.546875 C 223.625 310.546875 223.585938 313.308594 223.605469 316.683594 M 249.011719 311.417969 C 248.714844 311.699219 246.496094 313.042969 244.078125 314.410156 C 238.019531 317.835938 237.917969 317.902344 238.273438 318.230469 C 238.8125 318.734375 249.414062 324.808594 249.769531 324.824219 C 249.878906 324.824219 249.960938 321.699219 249.953125 317.871094 C 249.945312 314.042969 249.851562 310.914062 249.742188 310.914062 C 249.632812 310.914062 249.304688 311.140625 249.011719 311.417969 M 128.429688 315.171875 C 127.855469 315.75 128.195312 316.453125 128.996094 316.339844 C 129.449219 316.277344 129.820312 315.976562 129.820312 315.679688 C 129.820312 315.097656 128.855469 314.746094 128.429688 315.171875 M 142.761719 315.804688 C 140.992188 316.355469 140.621094 316.773438 141.894531 316.773438 C 143.222656 316.773438 145.75 316.011719 145.75 315.617188 C 145.75 315.203125 144.410156 315.289062 142.761719 315.804688 M 147.335938 318.882812 C 144.800781 320.285156 140.496094 320.84375 135.15625 320.460938 C 130.917969 320.160156 129.738281 319.890625 126.25 318.429688 C 125.671875 318.183594 125.609375 318.449219 125.609375 321.246094 C 125.609375 323.980469 125.703125 324.421875 126.433594 325.09375 C 127.933594 326.476562 130.609375 327.109375 135.773438 327.304688 C 141.074219 327.503906 144.21875 327.089844 146.722656 325.851562 C 148.753906 324.851562 149.101562 324.0625 148.972656 320.785156 L 148.863281 318.035156 Z M 230.140625 322.101562 C 226.730469 324 223.890625 325.707031 223.828125 325.894531 C 223.765625 326.082031 225.164062 327.011719 226.9375 327.964844 C 229.074219 329.117188 231.203125 330.285156 233.320312 331.472656 C 235.054688 332.453125 236.558594 333.25 236.660156 333.25 C 236.964844 333.25 236.929688 319.007812 236.625 318.820312 C 236.472656 318.722656 233.554688 320.199219 230.140625 322.101562 M 237.554688 319.246094 C 237.46875 319.394531 237.5 322.597656 237.625 326.359375 L 237.855469 333.199219 L 242.300781 330.570312 C 244.75 329.125 247.425781 327.566406 248.253906 327.105469 C 249.613281 326.351562 250.226562 325.5625 249.453125 325.5625 C 249.070312 325.5625 239.15625 319.871094 238.640625 319.355469 C 238.1875 318.902344 237.777344 318.859375 237.554688 319.246094 M 128.300781 322.816406 C 127.792969 323.191406 127.726562 323.421875 128.042969 323.738281 C 128.609375 324.3125 129.785156 324.046875 129.925781 323.3125 C 130.082031 322.503906 129.121094 322.207031 128.300781 322.816406 M 143.96875 323.195312 C 143.292969 323.488281 142.355469 323.730469 141.886719 323.730469 C 141.417969 323.730469 140.933594 323.894531 140.808594 324.097656 C 140.433594 324.699219 143.410156 324.519531 144.808594 323.851562 C 145.511719 323.519531 146 323.105469 145.898438 322.9375 C 145.648438 322.535156 145.429688 322.5625 143.96875 323.195312 M 125.488281 327.832031 C 125.210938 330.171875 125.980469 332.003906 127.648438 332.960938 C 129.78125 334.1875 134.195312 334.828125 138.976562 334.609375 C 144.121094 334.375 146.839844 333.621094 148.152344 332.0625 C 148.914062 331.15625 149.046875 330.621094 149.046875 328.433594 L 149.046875 325.867188 L 147.835938 326.617188 C 146.21875 327.617188 140.980469 328.492188 136.605469 328.492188 C 132.863281 328.492188 128.238281 327.566406 126.59375 326.488281 L 125.714844 325.910156 Z M 81.351562 326.582031 C 80.601562 326.703125 80.515625 326.867188 80.710938 327.835938 C 80.832031 328.449219 80.933594 329.257812 80.933594 329.636719 C 80.933594 330.222656 81.222656 330.320312 82.945312 330.320312 L 84.960938 330.320312 L 84.933594 329.132812 C 84.882812 326.699219 84.097656 326.140625 81.351562 326.582031 M 128.152344 330.167969 C 127.753906 330.644531 127.761719 330.800781 128.195312 331.078125 C 129.4375 331.863281 130.863281 330.960938 129.902344 330 C 129.332031 329.429688 128.714844 329.488281 128.152344 330.167969 M 143.21875 330.644531 C 142.527344 330.769531 141.886719 331.101562 141.796875 331.386719 C 141.59375 331.992188 143.097656 331.78125 145.070312 330.917969 C 146.179688 330.4375 146.210938 330.382812 145.386719 330.398438 C 144.882812 330.410156 143.90625 330.519531 143.21875 330.644531 M 102.890625 361.953125 C 102.796875 362.042969 102.777344 363.269531 102.84375 364.671875 L 102.960938 367.226562 L 105.128906 367.175781 C 106.320312 367.148438 107.296875 366.960938 107.296875 366.761719 C 107.300781 366.542969 106.46875 366.445312 105.285156 366.519531 L 103.269531 366.644531 L 103.269531 362.179688 L 107.660156 362.367188 L 107.664062 364.835938 C 107.664062 366.308594 107.820312 367.308594 108.046875 367.308594 C 108.289062 367.308594 108.390625 366.324219 108.324219 364.65625 L 108.214844 362 L 105.636719 361.894531 C 104.21875 361.835938 102.980469 361.863281 102.890625 361.953125 " fill-opacity="1" fill-rule="evenodd"/></svg>