<svg version="1.2" xmlns="http://www.w3.org/2000/svg" viewBox="0 0 500 501" width="500" height="501">
	<defs>
		<clipPath clipPathUnits="userSpaceOnUse" id="cp1">
			<path d="m39.06 41.5c13.22 19.84 31.95 32.36 144.15 96.37 35.99 20.53 52.49 37.21 57.05 57.7 1.93 8.7 3.06 19.44 2.51 23.88l-1.02 8.07-24.86-15.12c-13.68-8.31-53.18-31.37-87.77-51.23-39.08-22.45-66.45-40.12-72.28-46.69-11.49-12.93-17.71-31.13-19.89-58.15-1.4-17.3-1.07-19.6 2.11-14.83zm426-1.26c0.73 0 0.57 9.1-0.36 20.22-3.1 36.96-17.53 59.11-50.72 77.85-7.84 4.43-25.44 14.88-39.12 23.23-60.47 36.9-110.47 65.93-113.56 65.93-4.77 0-1.21-24.41 6.11-41.81 9.13-21.73 12.66-24.26 125-89.35 34.61-20.05 56.5-36.04 64.87-47.35 3.54-4.79 7.04-8.72 7.78-8.72zm-232.09 36.12l8.78 0.45 0.82 42.38 0.81 42.38-12.52-11.85c-14.9-14.1-26.49-21.43-64.44-40.78-15.69-7.99-28.52-15.41-28.52-16.48 0-1.75 24.84-6.69 70.21-13.98 8.85-1.41 20.04-2.37 24.86-2.12zm68.75 3.43c37.23 5.92 58.47 10.68 60.21 13.5 0.79 1.27-3.87 5.02-10.35 8.32-25.47 12.99-72.29 42.21-81.31 50.74l-9.5 8.98v-42.99c0-50.02-4.51-45.78 40.95-38.55zm-222.46 71.43l11.04 5.72c22.3 11.55 22.42 11.77 15.59 27.71-11.81 27.56-5.68 58.57 15.21 76.91 17.55 15.41 36.29 18.54 66.66 11.15 6.67-1.62 8.14-0.3 14.25 12.74 3.75 8.01 5.97 15.92 4.94 17.59-3.25 5.25-34.42 10.01-56.39 8.6-17.43-1.12-24.04-3.1-37.71-11.31-20.99-12.62-34.67-28.46-42.49-49.23-8.16-21.66-6.83-64.6 2.66-85.89zm341.78 3.13c2.07-0.01 6.33 5.98 9.47 13.3 29.52 68.88-9.62 139.87-79.43 144.04-23.66 1.41-51.25-4.99-54.16-12.57-0.8-2.09 1.36-9.31 4.79-16.05 5.38-10.55 7.25-12 13.37-10.47 27.27 6.85 45.35 4.58 65.1-8.15 21.7-13.99 30.61-52.72 18.34-79.74-6.24-13.74-5.59-15.59 8.52-24.14 5.63-3.42 11.93-6.22 14-6.22zm-277.94 33.8c5.54 3.88 6.23 6.3 4.66 16.16-1.43 8.9-0.63 12.96 3.37 17.39 6.69 7.39 21.99 7.52 30.95 0.27 5.39-4.37 8.18-4.88 13.49-2.46 9.03 4.12 8.41 8.91-2.31 17.94-16.12 13.57-33.72 13.62-51.36 0.16-12.7-9.68-17.45-24.99-12.95-41.7 3.69-13.7 4.81-14.31 14.15-7.76zm232.02 6.86c4.93 16.47 1.39 30.41-10.37 40.73-17.62 15.47-36.92 15.62-54.52 0.41l-9.97-8.62 6.88-5.86c6.87-5.85 6.89-5.85 14.29-0.03 8.89 6.99 20.49 7.49 29.37 1.28 5.04-3.53 6.51-7.45 6.51-17.35 0-7.72 1.82-14.61 4.59-17.38 6.97-6.97 9.48-5.67 13.22 6.82zm-151.93 44.16c1.37 0 7.4 2.64 13.41 5.86 13.7 7.33 20.4 7.33 31.48 0 4.83-3.2 9.78-5.82 11.01-5.84 1.23-0.01 4.98 5.65 8.35 12.58l6.12 12.59-19.34 38.6c-10.64 21.23-20.32 38.6-21.52 38.59-1.19 0-11.2-17.9-22.24-39.77l-20.06-39.76 5.15-11.43c2.83-6.28 6.27-11.42 7.64-11.42zm-149.55 48.95c18.01 24.49 49.48 38.82 85.27 38.82 10.97 0 19.94 0.78 19.94 1.73 0 0.95-2.65 5.11-5.9 9.24-20.87 26.53-17.45 78.92 6.9 105.66 5.84 6.4 4.9 6.22-12.31-2.41-25.97-13.02-63.06-50.44-77.29-77.99-10.07-19.48-25.46-68.68-25.48-81.42 0-4.24 2.26-2.61 8.87 6.37zm365.04-7.62c2.13 5.18-14.96 61.27-24.85 81.54-12.05 24.74-38.2 52.96-65.8 71.05-25.21 16.51-27.52 16.65-17.62 1.06 17.07-26.94 19.67-60.75 6.63-86.32-3.46-6.77-5.62-13.4-4.81-14.72 0.82-1.32 9.1-3.23 18.4-4.24 9.3-1.01 21.54-3.15 27.19-4.76 16.84-4.78 41.56-21.22 51.06-33.94 4.88-6.56 9.29-10.9 9.8-9.67zm-212.18 49.34c1.05 3.99-1.52 7.93-8.78 13.46-28.85 22.01-27.3 68.39 2.96 88.41 9.89 6.54 15.11 7.86 31.31 7.86 22.08 0 34.83-6.53 46.78-23.96 14.49-21.15 8.87-56.39-11.37-71.36-9.63-7.12-11.9-17.18-5.15-22.79 3.03-2.51 7.04-0.84 17.44 7.26 18.17 14.16 28.36 34.78 28.36 57.39 0 42.11-28.95 71.64-73.13 74.61-17.14 1.16-20.9 0.32-38.03-8.47-21.99-11.28-35.63-28.62-40.54-51.5-5.61-26.16 6.92-57.6 29.46-73.93 12.57-9.11 17.72-8.36 20.69 3.02z"/>
		</clipPath>
		<linearGradient id="g1" x2="1" gradientUnits="userSpaceOnUse" gradientTransform="matrix(500,0,0,501,0,250.5)">
			<stop offset="0" stop-color="#6f10c7"/>
			<stop offset="1" stop-color="#250ecf"/>
		</linearGradient>
	</defs>
	<style>
		.s0 { fill: #600e8f } 
	</style>
	<g clip-path="url(#cp1)">
		<path fill-rule="evenodd" class="s0" d="m39.06 41.5c13.22 19.84 31.95 32.36 144.15 96.37 35.99 20.53 52.49 37.21 57.05 57.7 1.93 8.7 3.06 19.44 2.51 23.88l-1.02 8.07-24.86-15.12c-13.68-8.31-53.18-31.37-87.77-51.23-39.08-22.45-66.45-40.12-72.28-46.69-11.49-12.93-17.71-31.13-19.89-58.15-1.4-17.3-1.07-19.6 2.11-14.83zm426-1.26c0.73 0 0.57 9.1-0.36 20.22-3.1 36.96-17.53 59.11-50.72 77.85-7.84 4.43-25.44 14.88-39.12 23.23-60.47 36.9-110.47 65.93-113.56 65.93-4.77 0-1.21-24.41 6.11-41.81 9.13-21.73 12.66-24.26 125-89.35 34.61-20.05 56.5-36.04 64.87-47.35 3.54-4.79 7.04-8.72 7.78-8.72zm-232.09 36.12l8.78 0.45 0.82 42.38 0.81 42.38-12.52-11.85c-14.9-14.1-26.49-21.43-64.44-40.78-15.69-7.99-28.52-15.41-28.52-16.48 0-1.75 24.84-6.69 70.21-13.98 8.85-1.41 20.04-2.37 24.86-2.12zm68.75 3.43c37.23 5.92 58.47 10.68 60.21 13.5 0.79 1.27-3.87 5.02-10.35 8.32-25.47 12.99-72.29 42.21-81.31 50.74l-9.5 8.98v-42.99c0-50.02-4.51-45.78 40.95-38.55zm-222.46 71.43l11.04 5.72c22.3 11.55 22.42 11.77 15.59 27.71-11.81 27.56-5.68 58.57 15.21 76.91 17.55 15.41 36.29 18.54 66.66 11.15 6.67-1.62 8.14-0.3 14.25 12.74 3.75 8.01 5.97 15.92 4.94 17.59-3.25 5.25-34.42 10.01-56.39 8.6-17.43-1.12-24.04-3.1-37.71-11.31-20.99-12.62-34.67-28.46-42.49-49.23-8.16-21.66-6.83-64.6 2.66-85.89zm341.78 3.13c2.07-0.01 6.33 5.98 9.47 13.3 29.52 68.88-9.62 139.87-79.43 144.04-23.66 1.41-51.25-4.99-54.16-12.57-0.8-2.09 1.36-9.31 4.79-16.05 5.38-10.55 7.25-12 13.37-10.47 27.27 6.85 45.35 4.58 65.1-8.15 21.7-13.99 30.61-52.72 18.34-79.74-6.24-13.74-5.59-15.59 8.52-24.14 5.63-3.42 11.93-6.22 14-6.22zm-277.94 33.8c5.54 3.88 6.23 6.3 4.66 16.16-1.43 8.9-0.63 12.96 3.37 17.39 6.69 7.39 21.99 7.52 30.95 0.27 5.39-4.37 8.18-4.88 13.49-2.46 9.03 4.12 8.41 8.91-2.31 17.94-16.12 13.57-33.72 13.62-51.36 0.16-12.7-9.68-17.45-24.99-12.95-41.7 3.69-13.7 4.81-14.31 14.15-7.76zm232.02 6.86c4.93 16.47 1.39 30.41-10.37 40.73-17.62 15.47-36.92 15.62-54.52 0.41l-9.97-8.62 6.88-5.86c6.87-5.85 6.89-5.85 14.29-0.03 8.89 6.99 20.49 7.49 29.37 1.28 5.04-3.53 6.51-7.45 6.51-17.35 0-7.72 1.82-14.61 4.59-17.38 6.97-6.97 9.48-5.67 13.22 6.82zm-151.93 44.16c1.37 0 7.4 2.64 13.41 5.86 13.7 7.33 20.4 7.33 31.48 0 4.83-3.2 9.78-5.82 11.01-5.84 1.23-0.01 4.98 5.65 8.35 12.58l6.12 12.59-19.34 38.6c-10.64 21.23-20.32 38.6-21.52 38.59-1.19 0-11.2-17.9-22.24-39.77l-20.06-39.76 5.15-11.43c2.83-6.28 6.27-11.42 7.64-11.42zm-149.55 48.95c18.01 24.49 49.48 38.82 85.27 38.82 10.97 0 19.94 0.78 19.94 1.73 0 0.95-2.65 5.11-5.9 9.24-20.87 26.53-17.45 78.92 6.9 105.66 5.84 6.4 4.9 6.22-12.31-2.41-25.97-13.02-63.06-50.44-77.29-77.99-10.07-19.48-25.46-68.68-25.48-81.42 0-4.24 2.26-2.61 8.87 6.37zm365.04-7.62c2.13 5.18-14.96 61.27-24.85 81.54-12.05 24.74-38.2 52.96-65.8 71.05-25.21 16.51-27.52 16.65-17.62 1.06 17.07-26.94 19.67-60.75 6.63-86.32-3.46-6.77-5.62-13.4-4.81-14.72 0.82-1.32 9.1-3.23 18.4-4.24 9.3-1.01 21.54-3.15 27.19-4.76 16.84-4.78 41.56-21.22 51.06-33.94 4.88-6.56 9.29-10.9 9.8-9.67zm-212.18 49.34c1.05 3.99-1.52 7.93-8.78 13.46-28.85 22.01-27.3 68.39 2.96 88.41 9.89 6.54 15.11 7.86 31.31 7.86 22.08 0 34.83-6.53 46.78-23.96 14.49-21.15 8.87-56.39-11.37-71.36-9.63-7.12-11.9-17.18-5.15-22.79 3.03-2.51 7.04-0.84 17.44 7.26 18.17 14.16 28.36 34.78 28.36 57.39 0 42.11-28.95 71.64-73.13 74.61-17.14 1.16-20.9 0.32-38.03-8.47-21.99-11.28-35.63-28.62-40.54-51.5-5.61-26.16 6.92-57.6 29.46-73.93 12.57-9.11 17.72-8.36 20.69 3.02z"/>
		<rect width="500" height="501" id="Relleno de degradado 1" style="fill: url(#g1)"/>
	</g>
</svg>